<svg version="1.1" id="Layer_1" xmlns="http://www.w3.org/2000/svg" xmlns:xlink="http://www.w3.org/1999/xlink" x="0px" y="0px"
	 width="100%" viewBox="0 0 1440 1024" enable-background="new 0 0 1440 1024" xml:space="preserve">
<path fill="#000000" opacity="1.000000" stroke="none" 
	d="
M1.294851,830.270752 
	C1.000000,555.231384 1.012520,280.462769 0.882265,5.694224 
	C0.880289,1.524100 1.864590,0.895841 5.803628,0.897127 
	C346.556610,1.008360 687.309631,1.000000 1028.531250,1.000000 
	C1030.734863,4.316343 1028.048096,5.496143 1026.024536,6.729066 
	C1011.253967,15.729001 997.049866,25.567909 983.145020,35.829041 
	C959.317139,53.412922 936.379517,72.083115 914.466919,92.031471 
	C901.069763,104.227684 888.315979,117.066635 875.288147,129.634476 
	C858.166748,146.151321 842.003174,163.578781 826.117676,181.225769 
	C811.765991,197.168884 797.924866,213.598068 784.065247,229.995041 
	C768.611328,248.278183 752.940247,266.391205 738.066528,285.138885 
	C726.716675,299.444763 714.799500,313.312897 704.255554,328.273315 
	C699.281128,335.331360 692.853210,341.333527 687.903564,348.422760 
	C679.709595,360.158905 669.812622,370.546722 661.748657,382.399963 
	C657.189148,389.102112 651.267212,394.863861 646.394165,401.383545 
	C640.134521,409.758331 633.505188,417.835205 627.103333,426.089600 
	C609.993286,448.151001 592.487732,469.895691 574.838257,491.518494 
	C566.443726,501.802917 557.708191,511.839355 549.431641,522.210876 
	C534.322449,541.144348 517.599487,558.659851 502.104279,577.247803 
	C491.688812,589.742126 480.461456,601.582581 469.042542,613.125305 
	C454.314331,628.013306 439.659698,642.989197 424.389252,657.376770 
	C402.438263,678.058594 379.779175,697.822754 355.823578,716.092285 
	C343.133118,725.770691 330.124084,735.032410 316.977203,744.109558 
	C310.387299,748.659546 303.233490,752.201721 296.730408,756.727112 
	C288.395050,762.527588 279.111877,766.651611 270.785522,772.453979 
	C267.050903,775.056519 262.327179,776.249451 257.961548,777.850281 
	C256.071289,778.543457 254.163788,779.108093 252.712677,781.159485 
	C232.110092,790.591309 211.631195,799.388062 190.464249,807.549072 
	C178.628357,812.017456 166.932007,815.639954 155.037643,818.601990 
	C136.034500,823.334229 116.924377,827.584045 97.462555,829.961792 
	C80.662704,832.014465 63.780884,833.210938 46.868145,833.726929 
	C33.430305,834.137024 20.002907,833.347412 6.588573,832.549255 
	C4.748813,832.439758 2.980351,831.895630 1.294851,830.270752 
z"/>
<path fill="#000000" opacity="1.000000" stroke="none" 
	d="
M1440.734863,410.711670 
	C1441.000000,614.125305 1440.990601,817.250610 1441.079102,1020.375854 
	C1441.080566,1023.895081 1440.651978,1025.111206 1436.625854,1025.110107 
	C959.556335,1024.993530 482.486816,1024.993896 5.417302,1025.104980 
	C1.483454,1025.105835 0.890359,1024.018799 0.910654,1020.418640 
	C1.071274,991.925598 1.000000,963.431274 1.000000,934.468628 
	C2.869826,932.176880 5.081022,932.736267 7.113798,933.377808 
	C26.426632,939.472290 46.024452,944.532837 65.653374,949.463562 
	C70.310501,950.633423 75.128212,951.190796 80.163452,952.538513 
	C85.088081,954.479187 90.020432,955.650391 94.677368,956.068970 
	C99.949234,956.542908 104.747025,959.100708 110.089233,958.710999 
	C116.015511,958.278625 121.631363,960.449219 127.396423,961.282227 
	C134.605606,962.323730 141.857803,963.073181 149.065994,964.126953 
	C154.704788,964.951355 160.467316,964.345947 166.139847,965.007324 
	C179.721191,966.590820 193.406097,966.869751 207.028427,967.730469 
	C213.781281,968.157227 220.816391,967.643555 227.706345,967.314148 
	C232.821899,967.069580 237.854233,966.622375 243.011047,967.196838 
	C246.523911,967.588257 250.312775,966.720398 253.696106,966.114136 
	C262.003876,964.625366 270.449005,965.626953 278.716370,963.741577 
	C282.809692,962.807983 287.228149,962.977478 291.494019,962.331299 
	C302.287689,960.696350 313.022766,958.932129 323.740875,956.724854 
	C335.547150,954.293396 347.211365,951.334595 358.982635,948.851440 
	C368.614136,946.819763 377.539368,942.610474 386.996216,940.544312 
	C398.958832,937.930542 410.085480,933.163696 421.313110,928.825256 
	C441.611633,920.981689 461.651306,912.457886 481.241699,902.842407 
	C491.299103,897.906006 500.728607,891.552551 511.596466,888.250366 
	C513.136292,887.782532 514.435425,886.554443 515.988037,885.234314 
	C516.421143,884.791321 516.590027,884.613220 517.030640,884.194214 
	C517.697693,883.693481 518.106628,883.457275 518.821960,883.069458 
	C519.316345,882.794739 519.517029,882.693604 520.026428,882.464478 
	C520.728271,882.130554 521.126587,881.935303 521.845337,881.652222 
	C524.626404,880.575439 527.049805,879.525085 529.155640,877.289124 
	C533.894348,873.242249 539.361633,871.033081 544.386292,868.126526 
	C562.816589,857.465454 580.666626,845.874756 598.378723,834.113892 
	C619.692688,819.961304 640.705688,805.306274 661.034302,789.768250 
	C675.679138,778.574585 690.328552,767.364197 704.825317,755.964355 
	C717.226379,746.212402 729.587830,736.367004 741.968567,726.591125 
	C753.163330,717.751648 764.359802,708.832458 775.133179,699.446655 
	C788.039978,688.202209 801.804260,678.010132 814.764526,666.829041 
	C820.797485,661.624268 827.115173,656.708191 833.413757,651.848145 
	C852.102356,637.427917 869.890320,621.889404 888.860352,607.809082 
	C896.160583,602.390564 903.505188,596.936829 910.408020,590.900269 
	C916.115295,585.909241 922.755310,581.922974 928.936768,577.422180 
	C937.673462,571.060852 946.276367,564.518433 954.995972,558.135437 
	C961.172607,553.613892 967.654297,549.563110 973.948914,545.239319 
	C987.638428,535.836060 1001.580688,526.811340 1015.813232,518.198303 
	C1029.458984,509.940308 1042.936401,501.466736 1056.930786,493.754395 
	C1067.414062,487.977020 1078.260254,482.863892 1088.544189,476.813019 
	C1100.211182,469.948425 1113.353760,466.434509 1125.222412,459.349609 
	C1125.695801,459.012482 1125.886230,458.881683 1126.395020,458.626221 
	C1127.139404,458.363342 1127.553223,458.195465 1128.250244,457.858154 
	C1128.755005,457.667603 1128.963745,457.614868 1129.486816,457.505890 
	C1130.842407,457.210938 1131.787720,456.762360 1132.938721,455.981262 
	C1133.428223,455.745026 1133.635742,455.673859 1134.168213,455.547394 
	C1136.249390,455.108063 1137.822754,454.309875 1139.589355,453.147186 
	C1140.044434,452.824249 1140.239014,452.713348 1140.750854,452.497925 
	C1141.477295,452.220276 1141.879883,452.033417 1142.590088,451.725037 
	C1143.119629,451.574860 1143.336182,451.534576 1143.873291,451.419006 
	C1146.058960,450.698273 1147.965820,450.172974 1150.105957,449.298340 
	C1150.647827,449.183319 1150.870728,449.170807 1151.420166,449.226318 
	C1152.120972,449.427094 1152.427734,449.937561 1152.745483,449.848511 
	C1153.374634,449.672119 1152.775513,450.065979 1152.679688,449.094879 
	C1153.023926,448.353607 1153.358398,448.023468 1154.096680,447.600647 
	C1161.539062,445.044373 1168.126221,441.182617 1175.271118,439.127472 
	C1188.812744,435.232422 1201.859863,429.914917 1215.495605,426.208160 
	C1227.189209,423.029327 1239.043091,420.492157 1250.712158,417.209808 
	C1258.335327,415.065491 1266.407471,414.516968 1274.191772,412.905884 
	C1291.151855,409.395721 1308.362427,407.872681 1325.529663,406.223419 
	C1336.073364,405.210480 1346.730835,404.965942 1357.370483,404.771240 
	C1367.649536,404.583130 1377.944702,404.160339 1388.215576,404.373871 
	C1403.500244,404.691711 1418.738403,406.130707 1433.981079,407.313263 
	C1436.481567,407.507263 1438.982788,407.980988 1440.734863,410.711670 
z"/>
<path fill="#FF8403" opacity="1.000000" stroke="none" 
	d="
M1.276751,863.264648 
	C1.000000,858.643127 1.000000,854.286194 1.000000,849.464661 
	C4.341028,845.603577 8.522646,846.913147 12.369614,847.224670 
	C20.319477,847.868530 28.239340,849.129333 36.231060,848.843628 
	C41.766037,848.645691 47.163906,849.863220 52.656231,849.893616 
	C71.299698,849.996826 89.871544,848.914673 108.432083,847.111755 
	C130.162460,845.001038 151.609970,841.360229 172.799789,836.208069 
	C221.853851,824.280945 267.939819,804.994934 311.538574,779.683228 
	C341.950073,762.027588 370.881195,742.225403 398.469116,720.367004 
	C420.535797,702.883179 441.662720,684.387695 462.341583,665.310791 
	C479.867096,649.142944 496.664185,632.240845 513.119568,615.035889 
	C536.121521,590.986084 558.517761,566.358887 580.383179,541.247009 
	C603.769104,514.388855 626.743958,487.190125 649.650085,459.926239 
	C666.348083,440.051605 682.893250,420.050446 699.362366,399.989288 
	C713.934265,382.239136 728.867126,364.794556 743.694824,347.266113 
	C757.769958,330.627197 771.974670,314.086609 786.502136,297.825439 
	C804.907532,277.223328 823.402649,256.723236 842.494385,236.741791 
	C859.873535,218.552841 877.628723,200.782593 895.812012,183.400299 
	C913.513672,166.478485 931.900574,150.350891 950.852234,134.897095 
	C970.967346,118.494667 991.741333,102.921219 1013.523010,88.739685 
	C1036.420166,73.832008 1059.763062,59.712498 1084.432983,47.889969 
	C1119.812866,30.934965 1156.278076,17.138571 1194.661377,8.439329 
	C1212.093628,4.488468 1229.537842,1.668358 1247.698730,1.219796 
	C1283.020874,1.000000 1318.041870,1.000000 1353.531372,1.000000 
	C1363.017090,2.463190 1372.160278,2.180319 1381.235718,2.844273 
	C1391.397217,3.587671 1401.332031,5.557878 1411.205811,7.643724 
	C1420.128174,9.528584 1429.268799,10.529432 1438.383545,13.576085 
	C1439.372192,13.812157 1439.884155,14.071025 1440.672852,14.714903 
	C1441.000000,36.687561 1441.000000,58.375122 1441.000000,80.531342 
	C1439.307251,82.893082 1437.203613,82.648216 1434.989258,82.282158 
	C1420.071899,79.816086 1405.210449,77.028610 1390.247559,74.815262 
	C1379.222290,73.184372 1368.132080,72.235832 1357.055908,71.202538 
	C1336.809814,69.313782 1316.486938,69.958527 1296.195190,70.171814 
	C1277.052490,70.373009 1258.057861,72.581779 1239.149902,75.482979 
	C1214.106689,79.325569 1189.582886,85.443832 1165.501465,93.201591 
	C1137.736572,102.145996 1110.759155,113.060127 1084.858765,126.602509 
	C1069.514893,134.625229 1054.189575,142.698730 1039.544556,151.905762 
	C1021.811890,163.053986 1004.310486,174.580856 987.446472,187.052567 
	C959.597168,207.648407 933.034119,229.766724 907.341858,252.994858 
	C892.021912,266.845459 877.485474,281.482239 862.542236,295.708344 
	C850.725342,306.958191 839.497681,318.793213 828.227844,330.554657 
	C808.662964,350.972870 789.449524,371.735107 770.499634,392.742493 
	C757.129761,407.564148 743.644897,422.293793 730.481689,437.292847 
	C717.316406,452.294159 703.973694,467.141785 690.924072,482.249420 
	C681.685547,492.944824 672.068665,503.334503 662.717346,513.941650 
	C648.964905,529.540833 634.827271,544.789368 620.975220,560.296997 
	C612.884521,569.354675 604.601990,578.251038 596.299866,587.114868 
	C569.989685,615.205261 542.972961,642.641724 515.100952,669.154846 
	C483.880310,698.853394 451.317780,727.072266 416.417816,752.516724 
	C388.009460,773.228394 358.650726,792.340881 327.685699,809.017029 
	C284.895447,832.061584 239.684219,848.462097 192.292114,858.978455 
	C171.981781,863.485352 151.438034,866.378784 130.712448,868.274719 
	C117.937561,869.443420 105.106285,869.359436 92.387047,870.405579 
	C78.173203,871.574707 64.138832,869.872925 50.025120,869.859985 
	C35.431908,869.846619 20.914875,867.315552 6.360389,865.929443 
	C4.469004,865.749268 2.847037,864.947693 1.276751,863.264648 
z"/>
<path fill="#FED306" opacity="1.000000" stroke="none" 
	d="
M1.000000,863.463196 
	C24.291189,865.631409 47.559856,868.048706 71.076515,868.249023 
	C90.541763,868.414856 109.892967,867.720581 129.280090,866.160461 
	C158.397324,863.817322 187.005295,858.754517 215.158508,851.117920 
	C252.567490,840.970764 288.588501,827.315308 322.833374,808.949097 
	C337.214600,801.236084 351.492279,793.362793 365.306183,784.728882 
	C392.531921,767.712402 418.615234,749.036194 443.600739,728.856079 
	C466.120087,710.667664 487.791504,691.525208 508.928925,671.734741 
	C532.658325,649.517517 555.269409,626.191162 578.126465,603.112793 
	C591.700317,589.407593 604.653381,575.074097 617.603577,560.767883 
	C636.908264,539.441895 655.969482,517.895447 675.123718,496.433411 
	C689.184204,480.678802 703.245850,464.925140 717.274353,449.142120 
	C735.167480,429.011230 752.987427,408.815155 770.921265,388.720612 
	C778.563904,380.157196 786.291199,371.662323 794.196228,363.341675 
	C811.625671,344.995941 828.967163,326.570862 846.712219,308.519165 
	C867.574585,287.296509 888.879578,266.550598 910.966309,246.628143 
	C941.620667,218.977646 973.696960,193.048401 1007.874878,169.857071 
	C1028.920044,155.576889 1050.558228,142.245132 1073.062134,130.265472 
	C1098.853394,116.535896 1125.347412,104.548622 1152.952637,95.056335 
	C1176.423462,86.985657 1200.302368,80.420090 1224.741821,75.837036 
	C1253.275146,70.486298 1281.986206,67.999176 1311.019043,67.790077 
	C1341.846680,67.568054 1372.437256,69.450340 1402.819824,74.672638 
	C1415.263062,76.811432 1427.715576,78.896523 1440.581909,81.003014 
	C1441.000000,102.020897 1441.000000,123.041786 1441.000000,144.531342 
	C1439.772705,146.311859 1438.340454,146.833649 1436.505249,146.499985 
	C1425.726685,144.540421 1414.985352,142.352371 1404.080444,141.150558 
	C1385.653809,139.119751 1367.296021,136.724808 1348.686523,136.263382 
	C1336.632690,135.964493 1324.594727,135.535339 1312.557007,136.059021 
	C1303.436035,136.455856 1294.313721,137.022552 1285.199463,137.617874 
	C1271.132446,138.536743 1257.204468,140.476700 1243.366943,142.742142 
	C1231.156494,144.741150 1218.995728,147.346420 1206.953369,150.420227 
	C1189.894653,154.774536 1173.093628,159.972580 1156.451416,165.622437 
	C1135.966064,172.576965 1116.072266,181.164810 1096.734253,190.798538 
	C1071.477539,203.380783 1046.889404,217.267334 1023.287476,232.785965 
	C1006.356384,243.918488 989.681885,255.455444 973.579468,267.755066 
	C947.954285,287.328400 923.161255,307.925140 899.318115,329.650604 
	C878.803406,348.343353 858.558960,367.307770 838.915771,386.931976 
	C823.625122,402.207886 808.234253,417.389801 793.210327,432.922821 
	C778.891357,447.726929 764.841309,462.801117 750.620178,477.699036 
	C734.918091,494.148224 719.539673,510.899323 703.799927,527.312561 
	C691.499084,540.139648 679.466064,553.229858 667.195251,566.087219 
	C656.547424,577.243958 645.625488,588.152771 634.989563,599.313354 
	C622.268860,612.661560 609.150208,625.602783 596.109863,638.618835 
	C586.482361,648.228394 576.657043,657.659607 566.672241,666.914673 
	C556.189148,676.631531 545.980042,686.642883 535.094849,695.924377 
	C521.956177,707.127380 509.336212,718.917053 495.804443,729.688354 
	C488.409546,735.574890 481.424896,742.093140 473.873840,747.735535 
	C463.914246,755.177673 454.058838,762.779541 443.934723,770.016174 
	C427.204590,781.974792 410.140228,793.453430 392.514648,803.999390 
	C359.666077,823.653809 325.934326,841.724548 289.755493,854.562866 
	C267.402802,862.494812 244.752457,869.553101 221.450211,874.478149 
	C209.462921,877.011719 197.421417,879.237000 185.354218,881.106995 
	C175.237244,882.674683 164.949112,883.508362 154.753708,884.681580 
	C135.565796,886.889465 116.327827,886.646423 97.124603,886.765686 
	C81.390907,886.863403 65.637589,885.762268 49.942307,883.827515 
	C40.435574,882.655640 30.833546,882.120117 21.372606,880.478882 
	C14.740219,879.328491 7.903467,879.166504 1.284251,876.260376 
	C1.000000,871.975464 1.000000,867.950928 1.000000,863.463196 
z"/>
<path fill="#33CDFB" opacity="1.000000" stroke="none" 
	d="
M1440.716553,211.738068 
	C1441.000000,233.687561 1441.000000,255.375122 1441.000000,277.531342 
	C1437.978394,280.384674 1434.511963,279.245636 1431.379639,278.783325 
	C1415.583374,276.451721 1399.708496,275.150116 1383.794189,273.926819 
	C1365.143188,272.493195 1346.477783,272.720032 1327.881470,273.361053 
	C1303.984741,274.184784 1280.250488,277.233032 1256.636719,281.438507 
	C1232.329102,285.767517 1208.637451,292.335449 1185.071777,299.376831 
	C1170.256836,303.803528 1155.930908,309.814392 1141.533813,315.492462 
	C1123.402832,322.643127 1105.862671,331.194183 1088.543823,340.051117 
	C1069.451172,349.815155 1050.838867,360.543793 1032.610596,371.905640 
	C1013.974121,383.521881 995.637634,395.604156 977.804810,408.386719 
	C963.079468,418.941833 948.685669,429.986023 934.425720,441.187317 
	C911.920166,458.865570 890.191223,477.474640 868.599487,496.234680 
	C857.176514,506.159515 846.012817,516.398743 834.765503,526.531067 
	C813.996826,545.240662 793.601196,564.349792 773.247742,583.496643 
	C758.339539,597.520996 743.421814,611.544617 728.637207,625.706238 
	C715.066284,638.705322 701.260315,651.481079 687.337952,664.108826 
	C665.409058,683.998535 643.435730,703.842407 620.820190,722.965698 
	C591.208618,748.004822 561.085632,772.387390 529.491516,794.894348 
	C504.825378,812.466064 479.656281,829.240601 453.382965,844.397339 
	C416.663300,865.580444 378.647369,883.920288 338.611206,897.817993 
	C307.612305,908.578491 275.818085,916.472229 243.284286,921.116272 
	C226.008423,923.582336 208.666733,925.255066 191.230179,926.373596 
	C171.905930,927.613220 152.588577,927.466736 133.315964,926.826538 
	C114.251289,926.193176 95.253387,923.994995 76.295555,921.409119 
	C53.863956,918.349548 31.679148,914.256592 9.696554,908.952942 
	C6.833004,908.262085 3.702252,908.027710 1.280453,905.269409 
	C1.000000,900.643127 1.000000,896.286194 1.000000,891.464661 
	C5.405256,888.202881 9.972416,890.463196 13.999172,891.450195 
	C33.613232,896.257996 53.660770,898.101746 73.589035,900.541443 
	C85.091194,901.949524 96.743530,902.951721 108.395485,902.849487 
	C115.403969,902.787903 122.318047,904.054138 129.335464,903.911438 
	C150.281403,903.485474 171.156281,902.387573 192.017776,900.171326 
	C217.710327,897.441895 242.999802,892.804871 267.995728,886.448975 
	C299.544067,878.426941 329.863007,866.989990 359.410950,853.377686 
	C393.969330,837.457031 426.836884,818.576416 458.360931,797.334106 
	C493.853943,773.417236 527.648499,747.261536 560.137024,719.414673 
	C575.798218,705.990906 591.200989,692.284241 606.368652,678.292175 
	C628.028809,658.310791 649.396362,638.044373 670.251221,617.224487 
	C682.006287,605.489136 694.349243,594.342285 705.820984,582.321228 
	C735.604614,551.111328 766.353088,520.855347 797.061646,490.573242 
	C814.237671,473.635742 831.366455,456.615753 849.182922,440.333679 
	C873.986145,417.666595 898.751648,394.932983 924.888184,373.802765 
	C942.210205,359.798767 959.688843,345.977875 977.798645,332.952789 
	C1000.382507,316.709930 1023.530396,301.367218 1047.404419,287.115723 
	C1097.408691,257.265869 1150.193848,233.856354 1206.510376,218.653503 
	C1226.602051,213.229675 1246.987183,209.128479 1267.561523,206.253525 
	C1286.148804,203.656219 1304.842529,201.632156 1323.691528,201.845581 
	C1335.324707,201.977295 1346.953735,201.505371 1358.597778,201.814911 
	C1379.564087,202.372284 1400.378906,204.280106 1421.111816,207.413559 
	C1426.207153,208.183624 1431.252441,209.234695 1436.361694,209.880020 
	C1437.888306,210.072815 1439.330811,210.288620 1440.716553,211.738068 
z"/>
<path fill="#8D30E1" opacity="1.000000" stroke="none" 
	d="
M1441.000000,410.531342 
	C1430.498901,408.336121 1419.741455,408.482727 1409.035889,407.748749 
	C1401.815186,407.253693 1394.592651,406.796417 1387.362549,406.491211 
	C1377.630005,406.080292 1367.884644,407.007812 1358.200317,406.885223 
	C1347.783813,406.753357 1337.410278,407.380280 1327.148926,408.286621 
	C1317.941284,409.099915 1308.597656,409.240631 1299.454102,411.168915 
	C1294.703979,412.170654 1289.773926,412.793884 1284.934692,412.739868 
	C1281.403198,412.700500 1278.647583,414.575287 1275.380859,415.093658 
	C1263.088623,417.044342 1250.955322,419.809967 1238.810181,422.498718 
	C1229.815430,424.490021 1221.157593,427.939789 1211.832031,429.052582 
	C1204.871094,429.883148 1198.414917,434.326233 1191.447754,435.858002 
	C1178.604858,438.681549 1166.940186,444.510529 1154.348877,448.826233 
	C1152.654541,446.046021 1155.234497,446.156982 1156.454712,445.568848 
	C1162.726074,442.545868 1169.255737,440.102295 1175.524658,437.061127 
	C1150.311401,449.247559 1124.187622,459.292938 1098.318970,469.938507 
	C1106.484497,466.451965 1114.774414,463.256714 1122.865356,459.595398 
	C1124.115356,459.029724 1125.346313,458.598206 1126.821411,459.778564 
	C1118.317505,465.325134 1108.504395,468.200348 1099.549927,472.853699 
	C1090.967407,477.313751 1082.715698,482.392303 1073.922241,486.491791 
	C1062.236450,491.939514 1051.077515,498.551178 1040.208984,505.309326 
	C1032.414062,510.156250 1023.455505,513.440369 1016.779846,520.349854 
	C1015.152832,522.033752 1011.736755,522.931335 1009.239807,524.310913 
	C1001.403137,528.640991 993.960876,533.765625 986.607544,538.729553 
	C979.820862,543.311096 973.066711,548.370850 966.193848,552.809937 
	C956.136108,559.306030 947.009583,567.003357 937.174622,573.755310 
	C931.055176,577.956482 925.242737,582.999817 919.066223,587.137512 
	C910.853271,592.639404 903.454529,599.127014 895.704468,605.115967 
	C884.296326,613.931885 872.244690,621.964661 861.826782,632.174255 
	C858.109924,635.816650 852.896545,638.446716 848.804199,642.090393 
	C841.438049,648.649048 833.169495,654.075256 825.906860,660.782654 
	C821.419678,664.926819 816.007202,668.071045 811.533813,672.227783 
	C804.305054,678.944702 795.754028,683.980408 788.755554,691.015381 
	C784.302246,695.491882 779.152954,699.412842 773.835571,702.837341 
	C771.010559,704.656677 768.812805,707.114502 766.491516,709.227112 
	C759.133484,715.923706 751.220703,722.142944 743.503418,728.164246 
	C735.662598,734.281799 728.286194,741.173279 719.858521,746.696350 
	C711.842285,751.949646 704.748352,758.592590 697.088196,764.413086 
	C691.418823,768.720947 686.032166,773.368591 680.229431,777.548218 
	C674.446411,781.713623 668.585754,785.954407 663.246826,790.862427 
	C659.500305,794.306702 654.783203,796.809753 650.608215,799.926880 
	C641.227600,806.930420 631.665527,813.714478 621.906860,820.179626 
	C615.778198,824.239868 609.570312,828.358948 603.645935,832.553345 
	C595.605591,838.245789 587.332031,843.619690 579.065186,848.900391 
	C571.647644,853.638611 564.361389,858.631714 556.609741,862.951416 
	C548.875610,867.261353 541.636597,872.491272 533.439636,876.068237 
	C532.310303,876.561035 531.516479,877.822876 530.222229,878.743286 
	C519.625122,883.005310 509.060852,886.564941 499.423218,892.839966 
	C495.883698,896.505188 491.471588,898.143677 487.302734,900.035095 
	C457.485321,913.563293 427.650269,927.178650 396.663910,937.748535 
	C386.290466,941.286987 375.903992,945.807190 365.140503,947.490723 
	C356.831848,948.790344 349.317871,953.417725 340.644196,952.680847 
	C338.695221,952.515259 336.994202,954.247253 334.981293,954.486084 
	C325.524902,955.608154 316.419800,958.470947 306.999817,959.968994 
	C296.754944,961.598206 286.464600,963.162415 276.190765,964.134705 
	C267.742950,964.934204 259.200226,965.545898 250.706573,966.149597 
	C240.418594,966.880859 230.127609,966.656067 219.847427,967.246643 
	C210.537231,967.781555 201.199249,967.491516 191.848022,966.584290 
	C181.504959,965.580933 171.088425,965.051941 160.723236,964.456909 
	C153.929199,964.066895 147.191437,963.296143 140.419373,962.813293 
	C132.646225,962.259033 125.061363,960.217163 117.445549,959.440491 
	C109.807129,958.661560 102.405350,956.405090 94.717323,956.308777 
	C94.216217,956.302490 93.685089,956.329712 93.243393,956.105957 
	C89.183708,954.049927 84.923988,953.628296 80.208282,954.254883 
	C73.486000,953.193787 67.217735,951.519592 60.874325,950.293884 
	C53.830215,948.932617 47.130398,946.322998 39.929714,945.385986 
	C36.362034,944.921814 32.561947,943.314087 28.897671,942.136047 
	C19.891874,939.240723 10.813124,936.572388 1.381861,933.906372 
	C1.000000,928.977905 1.000000,923.955811 1.000000,918.466858 
	C3.198447,915.855957 5.637931,916.831787 8.040830,917.469971 
	C25.223843,922.033875 42.428951,926.526550 59.852726,930.078552 
	C81.832916,934.559509 104.018791,937.593384 126.319855,940.142273 
	C155.539200,943.481934 184.811981,943.230469 214.068817,942.635376 
	C229.793015,942.315552 245.495163,940.238220 261.174133,938.310974 
	C293.831787,934.296570 325.562714,926.469666 356.855865,916.681885 
	C375.920563,910.718994 394.520416,903.407227 412.846466,895.458191 
	C436.840179,885.050781 460.207001,873.350769 482.981659,860.497070 
	C510.529022,844.949585 537.278320,828.101074 563.100220,809.841125 
	C578.031860,799.282043 592.778625,788.453674 607.398743,777.444946 
	C625.074341,764.135498 642.258423,750.214722 659.500854,736.383789 
	C673.760193,724.945679 687.566528,712.908447 701.484680,701.030640 
	C717.929932,686.996094 734.119995,672.669678 750.495667,658.556152 
	C762.841675,647.915649 774.936768,636.981567 787.193787,626.236145 
	C803.573914,611.876099 819.990417,597.558838 836.584167,583.440552 
	C848.235718,573.527222 859.799683,563.513916 871.533203,553.691223 
	C886.329102,541.304871 901.433044,529.312561 916.515381,517.285706 
	C932.386230,504.630096 948.555725,492.347839 965.173828,480.722260 
	C988.067261,464.706604 1011.128784,448.954681 1035.159912,434.582916 
	C1058.183105,420.813965 1081.633667,407.923065 1105.735107,396.247498 
	C1139.187622,380.041931 1173.802124,366.833527 1209.628296,356.689972 
	C1235.120972,349.472107 1260.963989,344.129120 1287.117065,340.330750 
	C1298.924316,338.615875 1310.885620,337.701843 1322.798950,336.618988 
	C1334.259277,335.577332 1345.735596,335.749115 1357.166504,335.289642 
	C1371.048828,334.731567 1385.051880,335.850128 1398.997803,336.521240 
	C1410.815796,337.089874 1422.477905,338.815338 1434.223145,339.873840 
	C1436.628662,340.090637 1438.859619,340.402710 1440.720947,342.726349 
	C1441.000000,365.354218 1441.000000,387.708466 1441.000000,410.531342 
z"/>
<path fill="#52E724" opacity="1.000000" stroke="none" 
	d="
M1441.000000,211.531342 
	C1429.338135,211.551636 1417.960693,208.890930 1406.408203,207.550018 
	C1362.712769,202.478241 1319.059814,202.092361 1275.354492,207.530960 
	C1207.882324,215.927124 1144.708252,237.679871 1084.630737,268.879578 
	C1041.512329,291.272095 1000.996887,317.824097 962.299438,347.181946 
	C919.520081,379.636505 879.302063,415.054413 840.340271,451.956940 
	C801.625122,488.625885 764.090210,526.479126 726.582825,564.368835 
	C681.704407,609.704712 636.540344,654.760254 588.935608,697.269653 
	C545.663391,735.910278 500.647827,772.363464 452.050598,804.183105 
	C404.740570,835.159851 354.921082,861.180664 301.098999,879.015259 
	C259.311096,892.862061 216.396591,901.026306 172.475708,904.241272 
	C115.397537,908.419250 59.061607,903.375061 3.205719,891.576355 
	C2.718781,891.473511 2.248400,891.292236 1.385150,891.073730 
	C1.000000,887.307068 1.000000,883.614197 1.000000,879.460632 
	C2.424182,877.480713 4.012152,877.595581 5.999306,877.925110 
	C20.003557,880.247498 34.031784,882.271912 48.184486,883.706421 
	C63.888981,885.298218 79.603859,886.739136 95.340187,886.727722 
	C110.590454,886.716675 125.874725,886.999329 141.125549,885.861267 
	C152.355042,885.023254 163.543365,883.839844 174.718323,882.514709 
	C201.891296,879.292358 228.683701,873.860046 254.867111,866.111816 
	C285.941833,856.916077 316.318909,845.581848 345.043701,830.374207 
	C361.481476,821.671753 378.041199,813.139893 393.851196,803.309875 
	C409.189240,793.773254 424.552765,784.185669 439.112396,773.542358 
	C458.108917,759.655396 476.875946,745.443054 495.001160,730.348999 
	C517.874207,711.301086 540.206604,691.678650 561.960083,671.397705 
	C576.033081,658.277405 589.806702,644.828857 603.428040,631.223816 
	C612.700439,621.962524 622.147339,612.854004 631.177856,603.369629 
	C641.810913,592.202271 652.669739,581.251648 663.252991,570.032654 
	C673.390503,559.286194 683.668945,548.652161 693.830566,537.924438 
	C702.619690,528.645630 711.401978,519.349792 720.105164,509.984192 
	C731.283508,497.955200 742.560364,486.014862 753.855164,474.092621 
	C770.426575,456.600525 786.999023,439.106110 803.861145,421.898590 
	C815.237610,410.289124 826.784363,398.835541 838.398071,387.452606 
	C850.147705,375.936615 861.817627,364.347717 873.836609,353.106354 
	C889.621765,338.342529 905.618286,323.822998 921.947815,309.662384 
	C935.003540,298.340759 948.240051,287.230835 961.988953,276.778381 
	C971.369812,269.646759 980.706238,262.446838 990.289124,255.561356 
	C1001.483398,247.517990 1012.891235,239.801407 1024.347900,232.165161 
	C1034.556396,225.360809 1045.318115,219.395477 1055.738892,212.923416 
	C1066.214722,206.417221 1077.507080,201.569077 1088.174683,195.519058 
	C1107.622925,184.489029 1128.321167,176.253830 1149.123901,168.369217 
	C1165.539307,162.147491 1182.341309,156.977829 1199.384644,152.547867 
	C1208.192017,150.258621 1217.036987,148.012360 1225.892212,146.016190 
	C1233.426392,144.317886 1241.190552,143.330017 1248.816284,141.910019 
	C1259.250366,139.967072 1269.810913,138.530746 1280.291382,137.794403 
	C1299.918091,136.415466 1319.588989,134.982483 1339.344482,135.881638 
	C1358.351562,136.746735 1377.293091,137.765656 1396.204224,140.199203 
	C1408.061279,141.725006 1419.815918,143.768356 1431.626221,145.507507 
	C1434.701660,145.960388 1437.969604,146.112473 1440.722900,148.734650 
	C1441.000000,169.687561 1441.000000,190.375122 1441.000000,211.531342 
z"/>
<path fill="#2E81E7" opacity="1.000000" stroke="none" 
	d="
M1441.000000,342.531342 
	C1419.882446,340.219849 1398.716797,338.390747 1377.393921,337.701752 
	C1363.225342,337.243927 1349.103271,337.576996 1335.007568,338.172241 
	C1307.733032,339.324036 1280.722290,342.882385 1253.924438,348.326660 
	C1229.903198,353.206848 1206.270386,359.367340 1183.053101,367.171021 
	C1148.254517,378.867310 1114.773560,393.551239 1082.259888,410.626892 
	C1053.778076,425.584961 1026.177124,441.956329 999.456177,459.813782 
	C968.596313,480.437286 938.747559,502.442413 909.695862,525.569397 
	C887.309143,543.390747 865.211975,561.549744 843.509399,580.180725 
	C821.294067,599.251831 799.477295,618.786377 777.385681,638.002625 
	C750.906982,661.034973 724.268555,683.883728 697.798706,706.926147 
	C673.453064,728.119263 648.389160,748.440002 622.981384,768.324036 
	C607.400452,780.517395 591.319519,792.076843 575.357788,803.777344 
	C553.064209,820.119446 530.023926,835.393860 506.320190,849.571167 
	C479.454102,865.639832 451.908569,880.523987 423.284973,893.318298 
	C394.049835,906.385986 364.146790,917.628113 333.238892,926.049561 
	C307.851410,932.966797 282.081787,937.859314 255.946030,941.231140 
	C223.774963,945.381592 191.513046,945.799988 159.239685,944.747620 
	C135.994751,943.989502 112.857796,941.282227 89.825211,937.658691 
	C71.730209,934.811768 53.827599,931.160400 36.020596,926.998413 
	C24.538723,924.314758 13.188148,921.069397 1.389365,918.037842 
	C1.000000,913.975464 1.000000,909.950928 1.000005,905.463135 
	C10.906877,907.146057 20.810326,909.308105 30.721279,911.435120 
	C57.404274,917.161621 84.398315,920.627563 111.559502,923.181763 
	C135.824158,925.463562 160.145950,925.813782 184.388474,924.733337 
	C215.603638,923.342102 246.560379,919.320496 277.204956,912.626770 
	C319.572937,903.372314 360.048737,888.969177 399.142456,870.437866 
	C431.658478,855.024414 462.887817,837.310425 492.877319,817.429199 
	C528.252319,793.977661 562.243347,768.663574 594.976685,741.638245 
	C617.030212,723.430359 638.756042,704.861938 659.982361,685.689697 
	C675.904785,671.308044 691.742981,656.845215 707.447144,642.224426 
	C724.130798,626.691650 740.727295,611.072205 757.257263,595.376526 
	C777.524109,576.132568 797.838501,556.928040 818.532471,538.147400 
	C842.533813,516.365112 866.782776,494.860168 891.414001,473.771606 
	C918.721313,450.391693 947.117981,428.441528 975.886475,406.952637 
	C985.998413,399.399445 996.871521,392.871704 1007.307922,385.745056 
	C1026.002930,372.979034 1045.370483,361.323944 1065.112671,350.264893 
	C1088.364258,337.240051 1112.257324,325.546539 1136.817749,315.198425 
	C1162.473022,304.389099 1188.728027,295.365265 1215.649780,288.263458 
	C1237.870117,282.401886 1260.404663,278.193268 1283.151489,275.014374 
	C1313.912598,270.715454 1344.861084,270.211212 1375.798950,271.209320 
	C1394.368286,271.808411 1412.930786,273.580658 1431.322876,276.576660 
	C1434.271729,277.057007 1437.238403,277.428101 1440.598389,277.924866 
	C1441.000000,299.354218 1441.000000,320.708466 1441.000000,342.531342 
z"/>
<path fill="#E40200" opacity="1.000000" stroke="none" 
	d="
M1247.531372,1.000001 
	C1239.651123,2.308797 1231.288574,3.536603 1222.955688,4.940151 
	C1183.010986,11.668127 1144.629517,23.549747 1107.489380,39.672604 
	C1078.072510,52.442692 1050.037354,67.746788 1023.103882,85.068237 
	C1000.837830,99.387993 979.515503,115.019928 958.747131,131.475357 
	C919.631287,162.468079 883.622437,196.798569 849.063904,232.669724 
	C825.973877,256.636810 803.724792,281.399139 781.791016,306.449554 
	C758.770081,332.741730 736.277710,359.478607 713.682190,386.127350 
	C695.398010,407.691345 677.720886,429.768829 659.609680,451.481079 
	C642.772095,471.666534 625.706421,491.661743 608.759583,511.756165 
	C587.945740,536.435730 566.543518,560.603882 544.787903,584.447449 
	C520.082764,611.523621 494.626801,637.910461 468.036530,663.137695 
	C448.002563,682.144592 427.307526,700.466125 405.671631,717.664185 
	C373.038025,743.604431 338.869934,767.279968 302.316345,787.437500 
	C262.430267,809.432739 220.574646,826.476807 176.385239,837.595459 
	C154.576111,843.083008 132.451492,846.892395 110.046463,849.146851 
	C90.478271,851.115784 70.875664,852.378052 51.233063,851.779114 
	C34.781162,851.277466 18.356306,849.888855 1.459738,848.946472 
	C1.000000,842.978821 1.000000,836.957703 1.000000,830.468262 
	C6.804039,830.342834 12.603868,830.826965 18.412964,831.000122 
	C32.032101,831.406006 45.612869,831.906128 59.271412,830.571228 
	C67.967239,829.721313 76.818970,830.410645 85.572990,829.150208 
	C95.877083,827.666565 106.409760,827.316528 116.505508,825.001648 
	C123.091705,823.491516 129.825211,822.814392 136.387604,821.045654 
	C141.317978,819.716736 146.057480,817.509521 151.406494,817.280762 
	C155.061401,817.124390 158.584595,814.865479 162.275681,814.386353 
	C171.760941,813.155212 180.333206,809.127441 189.646652,806.290039 
	C191.073685,808.250000 189.472366,808.476379 188.344910,809.116028 
	C185.019485,811.002502 181.327469,812.060791 178.452484,813.494995 
	C207.416763,800.437134 237.185883,787.762695 267.126709,775.932373 
	C262.227600,777.068726 258.230743,781.514343 252.273315,780.299194 
	C253.054871,778.381104 254.474579,777.347412 256.353760,776.910217 
	C266.478058,774.555115 273.926819,767.148682 282.990479,762.765076 
	C291.919006,758.446838 299.649567,752.081665 308.641479,747.708435 
	C313.142731,745.519165 316.975403,741.608826 321.342346,738.726013 
	C329.369568,733.426758 336.888031,727.364197 344.780548,721.851685 
	C355.939392,714.057678 366.540039,705.479492 377.212219,697.106934 
	C386.069885,690.158020 394.345154,682.185425 402.796295,674.593567 
	C410.876923,667.334534 418.638641,659.720947 426.871124,652.620728 
	C431.958038,648.233398 436.580719,643.299622 441.324310,638.524170 
	C450.758698,629.026550 460.231750,619.564026 469.500824,609.906494 
	C477.238220,601.844849 484.864105,593.663574 492.240173,585.272217 
	C497.146515,579.690552 502.507080,574.489563 507.165924,568.754822 
	C512.849426,561.758850 518.930603,555.220764 525.051758,548.631653 
	C531.406067,541.791504 536.488770,533.820251 543.455139,527.356873 
	C546.315369,524.703186 547.772888,520.528992 550.734070,517.566711 
	C553.339539,514.960327 555.468384,511.851685 557.641357,508.844666 
	C561.387939,503.660217 565.703857,498.881287 569.686829,493.932861 
	C573.320496,489.418427 577.553101,485.161133 581.247192,480.547363 
	C587.219055,473.088745 593.105713,465.561707 599.104980,458.125305 
	C603.286926,452.941650 607.630554,447.888763 611.838013,442.725281 
	C614.645264,439.280029 617.597534,435.912476 620.031799,432.212006 
	C625.124573,424.470032 631.643188,417.887756 637.170898,410.518860 
	C641.761169,404.399567 645.863892,397.885040 651.138550,392.323456 
	C658.108459,384.974457 662.930725,376.015625 669.711609,368.481598 
	C676.180298,361.294495 681.547668,353.126587 687.580566,345.533905 
	C693.317871,338.313202 699.465149,331.414398 705.101990,324.118958 
	C709.456116,318.483582 712.906555,312.119293 717.505127,306.714142 
	C720.698486,302.960571 723.500244,298.537720 726.955994,295.510864 
	C732.155884,290.956207 734.106018,284.366333 738.952698,280.000885 
	C744.827026,274.709869 749.037476,268.087097 754.186218,262.227051 
	C762.044617,253.282959 769.052063,243.582932 777.030090,234.754425 
	C785.568237,225.306137 793.599854,215.451813 801.822937,205.749908 
	C809.230713,197.009872 817.147400,188.729248 824.453003,179.879196 
	C831.742188,171.049149 839.931091,162.952469 847.860107,154.662918 
	C853.949951,148.296097 860.281616,142.161270 866.446167,135.864914 
	C873.980591,128.169357 880.900452,119.746742 889.142944,112.913383 
	C894.773071,108.245705 899.683228,102.873299 904.886780,97.909157 
	C913.948975,89.263870 923.695068,81.417953 932.981262,73.071815 
	C939.863281,66.886337 946.980530,60.770729 954.456360,55.125149 
	C959.662170,51.193836 965.131470,47.381405 970.111694,42.963402 
	C975.038757,38.592484 980.675232,34.674629 986.260254,30.909914 
	C992.441040,26.743650 998.462830,22.342091 1004.580688,18.081432 
	C1007.256958,16.217672 1009.863037,14.185622 1012.741760,12.694840 
	C1018.120667,9.909319 1022.429871,5.389265 1028.230103,3.305167 
	C1028.688843,3.140324 1028.894409,2.270458 1029.108765,1.364122 
	C1101.687622,1.000000 1174.375122,1.000000 1247.531372,1.000001 
z"/>
<path fill="#A2DE14" opacity="1.000000" stroke="none" 
	d="
M1441.000000,148.600006 
	C1423.529785,145.683838 1406.027710,142.520355 1388.344727,140.589523 
	C1377.777222,139.435669 1367.165405,138.574509 1356.551025,137.989151 
	C1338.189087,136.976501 1319.781982,136.964523 1301.444092,138.040970 
	C1284.256714,139.049881 1267.128784,140.883636 1250.050293,143.458176 
	C1219.507935,148.062271 1189.874634,156.079727 1160.726562,165.939484 
	C1135.946533,174.321640 1112.196655,185.112442 1088.797119,196.931244 
	C1067.802490,207.535400 1047.604736,219.409729 1027.765991,231.854187 
	C1016.147461,239.142319 1004.803162,247.037064 993.723022,255.265152 
	C983.607117,262.777252 973.251892,270.013214 963.327454,277.773682 
	C944.869019,292.207489 926.959717,307.309326 909.364624,322.808777 
	C886.760376,342.720886 864.928894,363.444580 843.408997,384.489136 
	C833.961548,393.727844 824.477600,402.959869 815.448914,412.653351 
	C804.813904,424.071533 793.436707,434.794495 782.576782,446.008209 
	C770.673096,458.299652 758.959717,470.776245 747.223083,483.228424 
	C732.426758,498.926788 717.690552,514.681824 702.928955,530.412964 
	C689.409119,544.820923 675.996826,559.331726 662.336609,573.605286 
	C651.660095,584.761230 640.655884,595.603088 629.834717,606.621277 
	C618.821960,617.834595 608.150818,629.402100 596.801697,640.262329 
	C577.828674,658.417969 559.114258,676.858276 539.331604,694.156860 
	C527.320801,704.659607 515.785400,715.744995 503.348969,725.710754 
	C491.825073,734.945129 480.788055,744.775024 468.715332,753.391846 
	C460.503906,759.252625 452.564575,765.604858 444.358582,771.515442 
	C431.971527,780.437866 419.201965,788.813782 406.402100,797.157715 
	C384.752625,811.270508 362.106293,823.594055 339.066010,835.096741 
	C317.930695,845.648376 296.088226,854.782532 273.473694,861.928223 
	C253.475983,868.246948 233.362579,874.210999 212.754623,878.026062 
	C193.997330,881.498535 175.134918,884.399292 156.070206,886.151062 
	C141.799149,887.462402 127.516747,888.167236 113.258102,888.339355 
	C91.901970,888.597290 70.555443,887.797485 49.246593,885.421936 
	C33.376949,883.652771 17.631325,881.202209 1.420861,878.985046 
	C1.000000,878.250000 1.000000,877.500000 1.000001,876.375000 
	C9.060785,877.149536 17.163176,878.066589 25.173170,879.499939 
	C39.282810,882.024719 53.574955,882.738892 67.799500,884.019226 
	C87.059174,885.752747 106.408890,885.533508 125.714035,884.986877 
	C147.495071,884.370117 169.106781,881.832336 190.675934,878.610901 
	C212.287323,875.383301 233.600662,870.726807 254.425201,864.464172 
	C276.718903,857.759644 298.847290,850.309692 320.133453,840.610291 
	C344.563507,829.478333 368.201508,816.804565 391.180725,803.048767 
	C415.133118,788.710205 438.244171,772.938843 460.431702,755.961914 
	C486.174255,736.264954 510.987396,715.424927 535.127075,693.763550 
	C551.579346,679.000183 567.485046,663.685181 583.516663,648.483459 
	C599.338440,633.480713 614.696838,618.025574 629.991211,602.507568 
	C647.379700,584.864868 664.475830,566.931335 681.550598,548.983032 
	C696.213257,533.570251 710.649841,517.942749 725.216858,502.438751 
	C745.130615,481.243988 764.787170,459.797668 785.077087,438.968689 
	C809.712708,413.678619 834.658752,388.679077 859.923584,364.018097 
	C875.722351,348.596954 892.110596,333.752106 908.686279,319.162140 
	C924.892090,304.897705 941.182434,290.715424 958.464905,277.699371 
	C969.733215,269.212891 980.620667,260.204346 992.174194,252.097610 
	C1010.129517,239.498840 1028.448853,227.474380 1047.220581,216.082108 
	C1062.046875,207.084335 1077.247437,198.756683 1092.715576,191.106613 
	C1119.132446,178.041550 1146.205811,166.354965 1174.636230,158.065521 
	C1185.172241,154.993546 1195.644775,151.740158 1206.283691,149.001846 
	C1225.467041,144.064377 1244.922363,140.670212 1264.536377,138.106796 
	C1289.822998,134.802017 1315.238281,133.573608 1340.712524,134.282532 
	C1358.794434,134.785751 1376.791748,136.450317 1394.791016,138.526810 
	C1410.002563,140.281708 1425.012329,143.118195 1440.578979,145.073257 
	C1441.000000,146.066666 1441.000000,147.133347 1441.000000,148.600006 
z"/>
<path fill="#E60E00" opacity="1.000000" stroke="none" 
	d="
M1439.240479,14.500986 
	C1432.629272,14.842320 1426.533813,13.068291 1420.431641,11.697711 
	C1398.730103,6.823467 1376.730713,3.969650 1354.340576,1.190251 
	C1380.354248,1.000000 1406.708496,1.000000 1433.531372,1.000000 
	C1438.072266,4.466685 1439.704102,8.948167 1439.240479,14.500986 
z"/>
<path fill="#000000" opacity="1.000000" stroke="none" 
	d="
M1439.371826,15.013653 
	C1437.327515,10.459452 1435.662109,6.114991 1433.998291,1.385265 
	C1441.000000,1.000000 1441.000000,1.000000 1441.000000,8.182940 
	C1441.000000,10.139209 1441.000000,12.095476 1441.000000,14.525872 
	C1440.693604,15.689739 1440.277100,15.764291 1439.371826,15.013653 
z"/>
<path fill="#F40000" opacity="1.000000" stroke="none" 
	d="
M251.687683,780.047913 
	C257.409058,779.789734 261.703064,776.652405 266.443024,774.757935 
	C268.671936,773.867188 270.754059,772.582642 273.172699,772.518188 
	C273.380737,773.069336 273.588745,773.620544 273.796783,774.171692 
	C239.973404,788.510437 206.150024,802.849243 172.326660,817.187988 
	C172.088623,816.686707 171.850586,816.185364 171.612564,815.684021 
	C177.042160,811.606262 184.285599,810.949829 189.885498,806.644409 
	C201.380936,801.585754 212.771988,796.891663 224.098923,792.047546 
	C233.211029,788.150696 242.245514,784.072449 251.687683,780.047913 
z"/>
<path fill="#8D2BE3" opacity="1.000000" stroke="none" 
	d="
M80.077301,954.355103 
	C84.204842,951.308044 88.322250,952.918518 92.917900,953.539429 
	C100.657661,954.585144 108.122658,958.529358 116.246208,956.491516 
	C116.855476,956.338623 117.610611,956.322998 118.184807,956.541260 
	C127.474770,960.072449 137.163361,960.663208 146.972763,961.653198 
	C157.760803,962.742004 168.621201,962.485779 179.429916,964.008057 
	C185.048157,964.799255 191.354797,965.477478 197.313797,964.386963 
	C199.560944,963.975647 201.223602,965.472778 203.431610,965.604919 
	C210.118576,966.005127 216.787262,963.719360 223.118286,964.645264 
	C230.375809,965.706482 237.434586,963.890198 244.731537,964.823608 
	C248.669189,965.327332 254.283157,963.881470 258.887390,963.628784 
	C264.173096,963.338684 269.434601,960.567261 274.852295,962.627930 
	C275.286560,962.793091 275.964111,962.860779 276.309296,962.636353 
	C281.553009,959.227173 287.872772,960.747681 293.402435,960.095642 
	C299.405212,959.387878 305.331512,955.942688 311.660858,957.861511 
	C312.119476,958.000549 312.806519,958.100830 313.130157,957.865417 
	C320.384735,952.589111 329.841339,955.533386 337.392242,951.349304 
	C338.519348,950.724792 340.120728,949.906921 341.111298,950.264038 
	C345.767120,951.942810 349.721710,950.029358 353.425842,947.921387 
	C357.506744,945.598938 361.885345,946.757385 365.943604,945.899902 
	C371.384033,944.750488 376.460632,941.851562 381.671204,939.651123 
	C385.226318,938.149780 388.271576,936.518005 392.824615,937.294678 
	C396.554871,937.930908 401.011719,935.099548 404.981110,933.415588 
	C433.315765,921.395447 461.608215,909.275879 489.913177,897.185791 
	C492.676422,896.005493 495.316742,894.624390 497.710693,892.231934 
	C504.141083,888.718567 510.386017,885.590027 517.673096,884.703003 
	C517.113037,885.755798 516.406311,886.889771 515.419189,887.245728 
	C505.389343,890.862000 496.872620,897.366211 487.362000,901.892700 
	C472.755890,908.844238 457.778625,915.011414 443.033264,921.676147 
	C427.292816,928.790710 411.210205,935.286011 394.773285,940.248047 
	C385.103088,943.167358 375.622040,946.930969 365.696869,949.120850 
	C353.821655,951.741028 342.107941,955.291687 330.209290,957.523132 
	C313.938629,960.574402 297.612640,963.552551 281.054718,965.227478 
	C272.792084,966.063354 264.406067,966.671814 256.142395,967.561707 
	C249.153946,968.314148 241.823029,968.851501 234.496109,968.441345 
	C228.261627,968.092285 221.658493,967.952576 215.403122,968.579956 
	C202.963531,969.827454 190.756790,967.988831 178.455719,967.523560 
	C169.755905,967.194519 160.977783,967.083069 152.408127,965.754944 
	C145.624802,964.703613 138.769012,964.593445 131.960464,963.427063 
	C124.273682,962.110168 116.468506,960.773071 108.648750,959.862854 
	C101.530441,959.034241 94.162941,958.671692 87.498314,955.630554 
	C85.029091,954.503906 82.229179,957.898438 80.077301,954.355103 
z"/>
<path fill="#9B33F8" opacity="1.000000" stroke="none" 
	d="
M1127.293701,460.042480 
	C1122.234131,459.749237 1118.552124,462.758698 1114.435669,464.360992 
	C1106.916138,467.287781 1099.554077,470.618744 1092.126465,473.781128 
	C1091.864380,473.165039 1091.602295,472.548950 1091.340210,471.932861 
	C1121.104004,459.299988 1150.867676,446.667145 1180.631470,434.034271 
	C1180.899048,434.581329 1181.166504,435.128387 1181.433960,435.675446 
	C1176.979126,437.623108 1172.449097,439.417969 1168.089722,441.560242 
	C1163.491821,443.819824 1158.390625,445.012604 1154.090088,448.438416 
	C1153.677124,449.025940 1153.375366,449.299011 1152.924072,449.838776 
	C1152.479248,450.097656 1152.184082,450.089813 1151.447266,450.051910 
	C1148.700439,450.372437 1146.673950,451.492889 1144.265869,452.545959 
	C1143.977417,452.736359 1143.588257,453.045563 1143.342651,453.083496 
	C1142.927734,453.229614 1142.758545,453.337830 1142.304932,453.545288 
	C1141.834351,453.717438 1141.648315,453.790253 1141.168457,453.921997 
	C1138.782959,454.849182 1136.646484,455.608215 1134.291992,456.732391 
	C1133.993896,456.902893 1133.975342,456.994568 1133.929688,456.984711 
	C1132.911987,457.827454 1131.478516,457.570892 1130.231323,458.559875 
	C1129.971436,458.733185 1129.586060,459.039795 1129.342651,459.077301 
	C1128.928345,459.225067 1128.757324,459.335358 1128.305664,459.566193 
	C1127.874146,459.796051 1127.723022,459.905304 1127.293701,460.042480 
z"/>
<path fill="#9C32F4" opacity="1.000000" stroke="none" 
	d="
M518.220947,884.927979 
	C511.136902,886.199585 505.340973,890.215332 498.340912,891.988281 
	C498.249115,890.556213 499.286682,889.769165 500.536865,889.245483 
	C509.320862,885.566040 518.105469,881.887512 526.921753,878.286682 
	C527.591797,878.013000 528.507629,878.341125 529.593140,878.573730 
	C527.910400,880.843933 525.282776,881.805298 522.400818,882.983276 
	C521.886963,883.165894 521.730042,883.306335 521.296814,883.599731 
	C520.861328,883.811890 520.702271,883.870972 520.292358,883.973755 
	C519.889038,884.158447 519.736450,884.299561 519.300781,884.570679 
	C518.842346,884.758179 518.667175,884.815552 518.220947,884.927979 
z"/>
<path fill="#8D30E1" opacity="1.000000" stroke="none" 
	d="
M1144.337646,452.767151 
	C1145.514526,450.324036 1147.922974,449.745117 1150.775146,449.818359 
	C1148.902954,450.947205 1146.800415,451.872559 1144.337646,452.767151 
z"/>
<path fill="#8D30E1" opacity="1.000000" stroke="none" 
	d="
M1134.357178,456.895874 
	C1135.472412,454.732452 1137.681396,454.082336 1140.506958,453.965454 
	C1139.009644,455.344696 1137.137451,456.693359 1134.357178,456.895874 
z"/>
<path fill="#8D30E1" opacity="1.000000" stroke="none" 
	d="
M1130.295654,458.756104 
	C1130.466309,457.089935 1131.814575,456.980225 1133.541748,456.955811 
	C1132.795898,457.576233 1131.708008,458.177643 1130.295654,458.756104 
z"/>
<path fill="#8D30E1" opacity="1.000000" stroke="none" 
	d="
M1152.698608,449.995483 
	C1152.774292,450.105469 1152.716309,450.089355 1152.713623,450.076416 
	C1152.711060,450.063507 1152.420898,449.982605 1152.420898,449.982605 
	C1152.420898,449.982605 1152.622925,449.885498 1152.698608,449.995483 
z"/>
<path fill="#8D30E1" opacity="1.000000" stroke="none" 
	d="
M1142.251709,453.699829 
	C1142.186279,453.406250 1142.407227,453.242584 1142.890259,453.137451 
	C1143.057007,453.492188 1142.852295,453.703400 1142.251709,453.699829 
z"/>
<path fill="#8D30E1" opacity="1.000000" stroke="none" 
	d="
M1128.260254,459.724060 
	C1128.183105,459.436615 1128.401245,459.261963 1128.889526,459.138794 
	C1129.063843,459.485229 1128.862427,459.700745 1128.260254,459.724060 
z"/>
<path fill="#8D2BE3" opacity="1.000000" stroke="none" 
	d="
M521.264526,883.785278 
	C521.183105,883.511597 521.390625,883.318787 521.843506,883.099915 
	C521.996643,883.378052 521.818176,883.642151 521.264526,883.785278 
z"/>
<path fill="#8D2BE3" opacity="1.000000" stroke="none" 
	d="
M519.258179,884.752014 
	C519.175293,884.459717 519.382751,884.274231 519.840698,884.080872 
	C519.991516,884.369690 519.810608,884.631653 519.258179,884.752014 
z"/>
</svg>