<svg id="svg" version="1.1" xmlns="http://www.w3.org/2000/svg" xmlns:xlink="http://www.w3.org/1999/xlink" width="400" height="284.44444444444446" viewBox="0, 0, 400,284.44444444444446"><g id="svgg"><path id="path0" d="M285.139 0.269 C 285.596 0.458,285.180 0.747,282.778 1.905 C 281.174 2.678,280.049 3.318,280.278 3.328 C 280.927 3.356,279.524 4.337,277.865 5.016 C 276.923 5.401,276.474 5.733,276.567 5.975 C 276.660 6.218,276.013 6.683,274.674 7.334 C 273.555 7.879,272.810 8.326,273.020 8.329 C 273.739 8.337,272.822 9.079,271.249 9.761 C 270.312 10.168,269.762 10.570,269.800 10.822 C 269.837 11.065,269.279 11.509,268.405 11.933 C 267.504 12.370,266.999 12.776,267.082 13.000 C 267.166 13.227,266.593 13.654,265.533 14.156 C 264.412 14.686,264.019 14.986,264.356 15.055 C 264.888 15.164,262.670 16.667,261.977 16.667 C 261.793 16.667,261.679 16.885,261.724 17.153 C 261.781 17.491,261.444 17.807,260.620 18.189 C 259.897 18.525,259.488 18.880,259.572 19.099 C 259.656 19.318,259.222 19.695,258.459 20.065 C 257.683 20.442,257.261 20.812,257.348 21.038 C 257.434 21.263,257.022 21.628,256.269 21.994 C 255.516 22.360,255.104 22.725,255.190 22.951 C 255.277 23.177,254.855 23.546,254.079 23.923 C 253.321 24.291,252.882 24.671,252.965 24.887 C 253.048 25.102,252.570 25.520,251.759 25.942 C 251.021 26.326,250.573 26.647,250.764 26.654 C 251.454 26.679,251.088 27.148,249.990 27.643 C 249.327 27.942,248.997 28.228,249.182 28.343 C 249.515 28.548,248.096 29.722,247.514 29.722 C 247.340 29.722,247.235 29.920,247.279 30.162 C 247.331 30.440,246.905 30.847,246.115 31.273 C 245.430 31.642,245.024 31.944,245.213 31.944 C 245.922 31.944,245.515 32.478,244.445 32.950 C 243.707 33.275,243.450 33.512,243.680 33.653 C 244.083 33.903,243.299 34.613,242.323 34.881 C 241.926 34.990,241.773 35.206,241.859 35.535 C 241.950 35.884,241.735 36.130,241.118 36.386 C 240.627 36.589,240.306 36.896,240.381 37.091 C 240.454 37.280,240.098 37.659,239.590 37.933 C 239.058 38.219,238.724 38.583,238.804 38.790 C 238.886 39.005,238.535 39.345,237.935 39.631 C 237.349 39.910,236.984 40.258,237.063 40.464 C 237.137 40.657,236.829 41.034,236.377 41.301 C 235.925 41.568,235.556 41.949,235.556 42.147 C 235.556 42.346,235.149 42.755,234.653 43.057 C 234.156 43.359,233.781 43.670,233.819 43.748 C 234.015 44.145,233.815 44.408,233.090 44.708 C 232.650 44.890,232.306 45.231,232.326 45.465 C 232.345 45.700,231.926 46.128,231.393 46.418 C 230.861 46.708,230.580 46.944,230.768 46.944 C 231.402 46.944,231.118 47.450,230.275 47.824 C 229.784 48.041,229.496 48.344,229.577 48.556 C 229.655 48.760,229.352 49.125,228.885 49.390 C 228.428 49.649,228.113 50.016,228.184 50.206 C 228.256 50.396,227.939 50.745,227.481 50.982 C 227.023 51.219,226.719 51.526,226.804 51.664 C 226.890 51.803,226.586 52.193,226.130 52.530 C 225.673 52.868,225.365 53.250,225.446 53.380 C 225.526 53.510,225.209 53.834,224.742 54.100 C 224.275 54.366,223.892 54.741,223.891 54.935 C 223.890 55.128,223.483 55.534,222.986 55.836 C 222.490 56.139,222.259 56.387,222.474 56.388 C 222.991 56.389,222.086 57.418,221.366 57.646 C 221.082 57.736,220.926 57.973,221.008 58.188 C 221.091 58.404,220.873 58.730,220.508 58.938 C 220.152 59.140,219.861 59.478,219.861 59.689 C 219.861 59.900,219.426 60.307,218.893 60.592 C 218.361 60.878,218.076 61.111,218.260 61.111 C 218.796 61.111,218.364 61.841,217.629 62.176 C 217.229 62.358,217.015 62.640,217.103 62.869 C 217.197 63.113,216.934 63.386,216.385 63.613 C 215.821 63.847,215.634 64.044,215.851 64.178 C 216.080 64.319,215.955 64.534,215.453 64.863 C 215.051 65.126,214.722 65.517,214.722 65.730 C 214.722 65.944,214.337 66.354,213.866 66.640 C 213.336 66.962,213.149 67.207,213.374 67.282 C 213.610 67.361,213.471 67.579,212.980 67.900 C 212.563 68.174,212.222 68.567,212.222 68.776 C 212.222 68.984,211.911 69.358,211.530 69.607 C 211.150 69.857,210.904 70.167,210.983 70.296 C 211.063 70.425,210.825 70.730,210.455 70.973 C 210.084 71.216,209.714 71.668,209.633 71.978 C 209.552 72.288,209.219 72.611,208.894 72.696 C 208.532 72.791,208.360 73.002,208.451 73.239 C 208.538 73.465,208.285 73.825,207.841 74.105 C 207.424 74.368,207.083 74.771,207.083 75.000 C 207.083 75.229,206.800 75.541,206.455 75.693 C 206.109 75.844,205.887 76.129,205.963 76.325 C 206.038 76.521,205.747 76.897,205.317 77.160 C 204.887 77.424,204.587 77.793,204.650 77.982 C 204.714 78.171,204.439 78.474,204.039 78.657 C 203.612 78.851,203.371 79.142,203.456 79.363 C 203.540 79.582,203.228 79.964,202.703 80.284 C 202.209 80.585,201.993 80.836,202.222 80.842 C 202.509 80.849,202.422 81.034,201.944 81.435 C 201.563 81.756,201.279 82.119,201.314 82.243 C 201.349 82.367,201.068 82.712,200.689 83.010 C 200.310 83.308,200.000 83.688,200.000 83.853 C 200.000 84.018,199.695 84.354,199.322 84.598 C 198.950 84.842,198.704 85.197,198.776 85.385 C 198.849 85.574,198.591 85.899,198.204 86.106 C 197.817 86.313,197.500 86.692,197.500 86.947 C 197.500 87.202,197.190 87.552,196.811 87.725 C 196.391 87.916,196.181 88.192,196.273 88.433 C 196.370 88.684,196.121 88.961,195.587 89.197 C 195.014 89.451,194.855 89.640,195.083 89.796 C 195.323 89.960,195.241 90.148,194.792 90.463 C 194.448 90.704,194.167 91.070,194.167 91.277 C 194.167 91.484,193.855 91.858,193.475 92.107 C 193.094 92.357,192.848 92.667,192.928 92.796 C 193.008 92.925,192.770 93.230,192.399 93.473 C 192.028 93.716,191.658 94.168,191.577 94.478 C 191.496 94.788,191.179 95.107,190.873 95.187 C 190.555 95.270,190.377 95.491,190.458 95.701 C 190.535 95.904,190.278 96.280,189.885 96.537 C 189.493 96.795,189.235 97.108,189.313 97.235 C 189.391 97.361,189.131 97.816,188.736 98.246 C 188.340 98.676,187.838 99.226,187.620 99.468 C 187.401 99.710,187.222 100.056,187.222 100.238 C 187.222 100.419,186.905 100.712,186.517 100.889 C 186.115 101.072,185.872 101.368,185.953 101.577 C 186.030 101.778,185.785 102.145,185.408 102.393 C 185.031 102.640,184.722 103.017,184.722 103.232 C 184.722 103.447,184.420 103.761,184.050 103.929 C 183.680 104.098,183.438 104.395,183.513 104.589 C 183.587 104.783,183.391 105.123,183.076 105.343 C 182.761 105.564,182.572 105.813,182.655 105.896 C 182.739 105.979,182.488 106.299,182.098 106.606 C 181.708 106.912,181.389 107.343,181.389 107.562 C 181.389 107.782,181.086 108.124,180.717 108.321 C 180.338 108.524,180.107 108.845,180.188 109.056 C 180.273 109.277,180.031 109.569,179.600 109.765 C 179.189 109.952,178.928 110.256,179.005 110.458 C 179.081 110.655,178.785 111.028,178.347 111.286 C 177.902 111.549,177.613 111.917,177.692 112.122 C 177.772 112.331,177.520 112.629,177.103 112.820 C 176.632 113.034,176.488 113.223,176.695 113.351 C 176.909 113.483,176.771 113.712,176.287 114.029 C 175.885 114.293,175.556 114.680,175.556 114.891 C 175.556 115.101,175.306 115.429,175.000 115.620 C 174.694 115.811,174.444 116.166,174.444 116.409 C 174.444 116.652,174.142 117.012,173.772 117.210 C 173.402 117.408,173.157 117.718,173.226 117.900 C 173.296 118.081,173.036 118.399,172.649 118.606 C 172.261 118.813,171.944 119.191,171.944 119.444 C 171.944 119.698,171.642 120.068,171.272 120.266 C 170.902 120.464,170.662 120.788,170.738 120.986 C 170.814 121.184,170.613 121.487,170.292 121.659 C 169.970 121.831,169.777 122.086,169.862 122.224 C 169.948 122.362,169.701 122.683,169.314 122.936 C 168.928 123.190,168.611 123.567,168.611 123.776 C 168.611 123.984,168.300 124.358,167.919 124.607 C 167.538 124.857,167.295 125.170,167.377 125.304 C 167.460 125.438,167.178 125.768,166.750 126.037 C 166.322 126.307,165.972 126.715,165.972 126.944 C 165.972 127.174,165.692 127.484,165.349 127.634 C 164.950 127.809,164.778 128.071,164.870 128.362 C 164.969 128.674,164.757 128.922,164.192 129.156 C 163.708 129.356,163.428 129.645,163.510 129.858 C 163.586 130.057,163.391 130.401,163.076 130.621 C 162.761 130.842,162.572 131.090,162.655 131.174 C 162.739 131.257,162.488 131.577,162.098 131.883 C 161.708 132.190,161.389 132.578,161.389 132.746 C 161.389 132.914,161.139 133.207,160.833 133.398 C 160.528 133.589,160.278 133.944,160.278 134.187 C 160.278 134.430,159.961 134.798,159.574 135.005 C 159.186 135.212,158.925 135.526,158.992 135.702 C 159.060 135.878,158.757 136.233,158.320 136.492 C 157.882 136.750,157.586 137.122,157.661 137.318 C 157.736 137.513,157.480 137.843,157.093 138.050 C 156.706 138.258,156.389 138.636,156.389 138.891 C 156.389 139.146,156.079 139.497,155.700 139.669 C 155.280 139.861,155.070 140.137,155.162 140.377 C 155.258 140.627,155.016 140.903,154.501 141.130 C 153.971 141.365,153.731 141.647,153.808 141.942 C 153.882 142.226,153.662 142.514,153.213 142.719 C 152.821 142.897,152.500 143.237,152.500 143.472 C 152.500 143.708,152.183 144.045,151.795 144.222 C 151.383 144.410,151.150 144.700,151.233 144.918 C 151.315 145.132,151.041 145.499,150.595 145.771 C 150.164 146.035,149.864 146.404,149.928 146.593 C 149.992 146.782,149.721 147.084,149.326 147.264 C 148.931 147.444,148.640 147.772,148.679 147.993 C 148.718 148.214,148.314 148.631,147.782 148.919 C 147.250 149.208,146.969 149.444,147.157 149.444 C 147.780 149.444,147.514 149.978,146.676 150.412 C 146.177 150.670,145.910 150.989,146.000 151.221 C 146.091 151.458,145.834 151.743,145.325 151.968 C 144.873 152.168,144.562 152.482,144.632 152.666 C 144.703 152.851,144.389 153.221,143.934 153.490 C 143.468 153.765,143.168 154.138,143.248 154.344 C 143.328 154.553,143.078 154.850,142.666 155.038 C 142.269 155.219,141.944 155.577,141.944 155.833 C 141.944 156.090,141.620 156.448,141.223 156.629 C 140.778 156.831,140.559 157.109,140.652 157.351 C 140.748 157.601,140.503 157.878,139.982 158.108 C 139.502 158.320,139.218 158.622,139.299 158.834 C 139.377 159.037,139.075 159.403,138.610 159.667 C 138.154 159.927,137.826 160.264,137.880 160.417 C 137.934 160.569,137.590 160.944,137.114 161.250 C 136.639 161.556,136.250 161.993,136.250 162.222 C 136.250 162.451,135.813 162.857,135.278 163.125 C 134.743 163.392,134.458 163.610,134.644 163.611 C 135.236 163.611,134.713 164.381,133.888 164.723 C 133.409 164.921,133.150 165.200,133.236 165.424 C 133.320 165.643,133.032 165.975,132.532 166.233 C 132.028 166.494,131.744 166.823,131.830 167.046 C 131.918 167.276,131.645 167.557,131.122 167.773 C 130.613 167.984,130.299 168.300,130.343 168.556 C 130.387 168.812,129.992 169.213,129.371 169.544 C 128.702 169.901,128.444 170.175,128.654 170.304 C 128.868 170.437,128.653 170.707,128.033 171.084 C 127.511 171.402,127.083 171.815,127.083 172.003 C 127.083 172.190,126.583 172.627,125.972 172.973 C 125.361 173.319,125.025 173.604,125.225 173.607 C 125.798 173.614,125.335 174.123,124.218 174.713 C 123.655 175.010,123.370 175.259,123.585 175.266 C 124.207 175.285,123.154 176.304,122.286 176.522 C 121.775 176.650,121.664 176.771,121.915 176.926 C 122.278 177.151,120.950 178.333,120.335 178.333 C 120.185 178.333,120.079 178.552,120.100 178.819 C 120.126 179.138,119.708 179.517,118.889 179.919 C 118.201 180.257,117.795 180.538,117.986 180.544 C 118.722 180.568,118.281 181.157,117.153 181.658 C 116.503 181.947,116.128 182.192,116.319 182.203 C 117.068 182.245,116.599 182.768,115.208 183.441 C 114.311 183.875,113.964 184.154,114.306 184.165 L 114.861 184.184 114.306 184.621 C 114.000 184.862,113.438 185.202,113.056 185.377 C 112.674 185.551,112.361 185.882,112.361 186.111 C 112.361 186.340,111.861 186.781,111.250 187.090 C 110.639 187.399,110.139 187.836,110.139 188.062 C 110.139 188.288,109.581 188.753,108.899 189.097 C 108.218 189.441,107.812 189.722,107.997 189.722 C 108.751 189.722,108.252 190.269,106.968 190.850 C 106.111 191.237,105.654 191.601,105.741 191.828 C 105.828 192.052,105.329 192.469,104.425 192.927 C 103.456 193.417,103.086 193.736,103.318 193.880 C 103.548 194.021,103.072 194.393,101.928 194.964 C 100.972 195.442,100.334 195.833,100.511 195.833 C 101.309 195.833,100.693 196.428,99.171 197.126 C 98.135 197.602,97.635 197.967,97.844 198.096 C 98.287 198.370,98.207 198.432,96.107 199.425 C 95.116 199.894,94.462 200.277,94.653 200.278 C 95.515 200.278,94.839 200.879,93.040 201.713 C 91.580 202.389,91.208 202.666,91.581 202.797 C 91.951 202.926,91.468 203.266,89.749 204.088 C 88.466 204.702,87.577 205.257,87.774 205.323 C 88.257 205.484,87.077 206.234,84.768 207.234 C 83.750 207.675,83.073 208.040,83.264 208.046 C 84.413 208.079,83.285 208.732,77.778 211.221 C 77.243 211.463,77.087 211.591,77.431 211.506 C 77.774 211.421,78.056 211.462,78.056 211.597 C 78.056 211.903,77.003 212.424,71.944 214.622 C 68.408 216.158,67.072 216.926,69.357 216.109 C 71.411 215.375,68.800 216.770,64.896 218.493 C 56.748 222.088,49.685 224.725,52.962 222.950 C 54.406 222.167,53.420 222.486,50.374 223.788 C 45.488 225.877,43.508 226.488,44.154 225.709 C 44.338 225.488,43.280 225.801,41.804 226.404 C 39.029 227.537,38.333 227.700,38.333 227.218 C 38.333 227.059,37.883 227.133,37.292 227.389 C 35.172 228.310,33.889 228.620,33.889 228.212 C 33.889 227.934,33.486 228.006,32.292 228.497 C 30.419 229.267,29.477 229.380,29.978 228.776 C 30.185 228.527,29.719 228.625,28.693 229.047 C 26.847 229.806,26.268 229.883,26.476 229.341 C 26.588 229.048,26.305 229.080,25.253 229.480 C 23.742 230.054,22.930 230.149,23.194 229.722 C 23.422 229.354,23.303 229.369,22.126 229.861 C 20.990 230.336,19.883 230.413,20.139 230.000 C 20.366 229.632,20.247 229.647,19.071 230.139 C 17.762 230.686,17.034 230.700,17.474 230.171 C 17.724 229.869,17.519 229.884,16.526 230.240 C 15.473 230.618,15.219 230.631,15.026 230.319 C 14.859 230.050,14.645 230.019,14.271 230.211 C 13.225 230.749,12.140 230.893,12.301 230.472 C 12.428 230.143,12.293 230.137,11.434 230.433 C 10.764 230.664,10.304 230.691,10.088 230.512 C 9.874 230.335,9.392 230.343,8.700 230.534 C 8.103 230.699,7.602 230.720,7.556 230.581 C 7.510 230.445,6.960 230.403,6.333 230.487 C 5.463 230.604,5.244 230.558,5.408 230.292 C 5.575 230.022,5.496 230.012,5.052 230.250 C 4.326 230.638,3.409 230.644,3.281 230.260 C 3.212 230.054,2.942 230.057,2.378 230.271 C 1.783 230.497,1.523 230.494,1.377 230.259 C 0.661 229.101,0.000 230.324,0.000 232.805 C -0.000 235.785,-0.631 235.454,5.972 235.938 C 56.895 239.667,100.598 217.346,151.391 161.667 C 152.994 159.910,154.369 158.410,154.446 158.333 C 154.523 158.257,155.585 157.069,156.807 155.694 C 158.028 154.319,159.095 153.132,159.178 153.056 C 159.402 152.849,166.222 144.943,169.836 140.702 C 170.614 139.789,171.698 138.539,172.245 137.924 C 172.792 137.309,174.784 134.931,176.672 132.639 C 178.559 130.347,180.184 128.410,180.281 128.333 C 180.379 128.257,183.445 124.569,187.096 120.139 C 190.747 115.708,193.862 111.944,194.020 111.773 C 194.590 111.155,196.455 108.930,204.015 99.849 C 205.536 98.022,206.849 96.465,206.934 96.389 C 207.018 96.313,207.773 95.438,208.611 94.444 C 209.449 93.451,210.199 92.576,210.278 92.500 C 210.356 92.424,211.107 91.549,211.946 90.556 C 212.785 89.563,213.597 88.614,213.750 88.449 C 213.903 88.283,214.715 87.349,215.556 86.372 C 216.396 85.396,217.771 83.838,218.611 82.909 C 219.451 81.981,220.567 80.727,221.091 80.124 C 223.240 77.650,227.537 72.916,231.667 68.475 C 232.660 67.407,236.785 63.210,240.833 59.149 C 247.181 52.782,249.748 50.336,256.250 44.457 C 270.194 31.848,288.347 19.597,303.611 12.493 C 317.267 6.138,331.111 2.051,344.861 0.316 C 346.071 0.164,335.050 0.065,315.694 0.055 C 298.583 0.046,284.833 0.143,285.139 0.269 M377.361 0.180 C 377.819 0.234,379.382 0.415,380.833 0.582 C 383.151 0.850,385.133 1.159,391.389 2.230 C 392.229 2.374,394.326 2.824,396.048 3.231 C 399.766 4.109,399.644 4.173,398.682 1.852 L 397.917 0.004 387.222 0.044 C 381.340 0.065,376.903 0.127,377.361 0.180 M378.333 112.917 C 378.333 113.145,378.542 113.227,378.889 113.136 C 379.194 113.056,379.444 112.957,379.444 112.917 C 379.444 112.876,379.194 112.777,378.889 112.697 C 378.542 112.606,378.333 112.689,378.333 112.917 M367.671 113.490 C 367.499 113.937,367.733 113.997,368.287 113.646 C 368.589 113.454,368.580 113.381,368.241 113.251 C 368.011 113.163,367.755 113.270,367.671 113.490 M355.139 114.920 C 354.833 114.994,354.458 115.181,354.306 115.336 C 354.118 115.526,354.253 115.552,354.722 115.414 C 356.160 114.992,356.497 114.594,355.139 114.920 M340.187 118.304 C 339.921 118.625,339.985 118.655,340.558 118.479 C 341.795 118.099,342.123 117.826,341.285 117.873 C 340.858 117.897,340.364 118.091,340.187 118.304 M332.500 120.561 L 331.806 121.109 332.708 120.805 C 333.204 120.638,333.541 120.389,333.455 120.251 C 333.260 119.934,333.317 119.915,332.500 120.561 M318.889 125.278 C 318.889 125.449,318.767 125.513,318.619 125.422 C 318.470 125.330,318.033 125.462,317.647 125.715 C 317.260 125.968,316.944 126.089,316.944 125.984 C 316.944 125.879,316.748 125.990,316.508 126.230 C 316.118 126.620,315.532 126.795,314.931 126.700 C 314.816 126.681,314.722 126.782,314.722 126.922 C 314.722 127.063,314.347 127.260,313.889 127.361 C 313.431 127.462,313.056 127.651,313.056 127.781 C 313.056 127.911,312.796 128.100,312.479 128.201 C 312.162 128.302,311.953 128.434,312.014 128.495 C 312.111 128.592,319.158 125.657,319.393 125.422 C 319.442 125.373,319.348 125.251,319.185 125.150 C 319.022 125.050,318.889 125.107,318.889 125.278 M310.556 129.028 C 310.174 129.246,309.986 129.425,310.139 129.425 C 310.292 129.425,310.729 129.246,311.111 129.028 C 311.493 128.809,311.681 128.631,311.528 128.631 C 311.375 128.631,310.938 128.809,310.556 129.028 M308.611 129.861 C 308.229 130.079,308.042 130.258,308.194 130.258 C 308.347 130.258,308.785 130.079,309.167 129.861 C 309.549 129.643,309.736 129.464,309.583 129.464 C 309.431 129.464,308.993 129.643,308.611 129.861 M298.117 135.184 C 297.616 135.431,297.261 135.687,297.327 135.753 C 297.393 135.819,297.928 135.620,298.515 135.310 C 299.780 134.643,299.436 134.534,298.117 135.184 M290.058 139.594 C 289.595 140.119,290.015 140.118,290.711 139.592 C 291.117 139.285,291.148 139.185,290.833 139.186 C 290.604 139.187,290.255 139.371,290.058 139.594 M284.620 142.837 C 284.694 142.957,284.602 143.056,284.415 143.056 C 284.227 143.056,284.146 143.128,284.235 143.216 C 284.323 143.305,284.750 143.184,285.184 142.948 L 285.972 142.519 285.228 142.569 C 284.819 142.596,284.545 142.716,284.620 142.837 M279.097 146.270 C 278.020 146.854,278.142 147.056,279.236 146.500 C 280.283 145.967,280.469 145.829,280.116 145.844 C 279.976 145.851,279.517 146.042,279.097 146.270 M274.877 149.037 C 274.191 149.556,274.643 149.550,275.556 149.028 C 275.958 148.798,276.075 148.630,275.833 148.630 C 275.604 148.629,275.174 148.812,274.877 149.037 M270.833 151.806 C 270.451 152.024,270.264 152.203,270.417 152.203 C 270.569 152.203,271.007 152.024,271.389 151.806 C 271.771 151.587,271.958 151.409,271.806 151.409 C 271.653 151.409,271.215 151.587,270.833 151.806 M267.222 154.306 C 266.840 154.524,266.653 154.703,266.806 154.703 C 266.958 154.703,267.396 154.524,267.778 154.306 C 268.160 154.087,268.347 153.909,268.194 153.909 C 268.042 153.909,267.604 154.087,267.222 154.306 M251.234 165.958 C 250.713 166.347,250.717 166.356,251.324 166.203 C 251.670 166.115,252.021 165.934,252.104 165.800 C 252.339 165.420,251.831 165.512,251.234 165.958 M240.242 174.629 C 239.894 175.052,239.920 175.060,240.556 174.730 C 241.487 174.246,241.557 174.167,241.053 174.167 C 240.817 174.167,240.452 174.375,240.242 174.629 M231.944 181.134 L 231.250 181.700 232.153 181.260 C 232.649 181.017,233.056 180.760,233.056 180.687 C 233.056 180.411,232.613 180.589,231.944 181.134 M229.845 182.908 C 229.548 183.132,229.438 183.320,229.600 183.324 C 229.761 183.329,230.136 183.150,230.433 182.926 C 230.730 182.701,230.840 182.514,230.678 182.509 C 230.516 182.504,230.141 182.684,229.845 182.908 M225.074 186.555 C 225.181 186.663,225.052 186.926,224.787 187.141 C 224.363 187.485,224.388 187.492,225.000 187.200 C 225.930 186.757,225.927 186.762,225.368 186.547 C 225.098 186.444,224.966 186.448,225.074 186.555 M217.276 193.072 C 216.945 193.602,216.962 193.621,217.495 193.336 C 217.812 193.166,217.998 192.909,217.908 192.764 C 217.691 192.412,217.687 192.414,217.276 193.072 M204.653 203.492 C 203.614 204.056,203.678 204.290,204.722 203.750 C 205.181 203.513,205.556 203.260,205.556 203.187 C 205.556 203.009,205.526 203.019,204.653 203.492 M196.544 209.870 C 196.248 210.094,196.130 210.278,196.283 210.278 C 196.435 210.278,196.803 210.094,197.100 209.870 C 197.396 209.646,197.514 209.462,197.361 209.462 C 197.208 209.462,196.841 209.646,196.544 209.870 M182.067 220.958 C 181.547 221.347,181.550 221.356,182.157 221.203 C 182.503 221.115,182.854 220.934,182.937 220.800 C 183.172 220.420,182.664 220.512,182.067 220.958 M178.889 223.356 L 178.194 223.922 179.167 223.454 C 180.356 222.880,180.482 222.776,179.977 222.784 C 179.760 222.787,179.271 223.045,178.889 223.356 M175.486 225.714 C 174.409 226.299,174.531 226.500,175.625 225.944 C 176.672 225.412,176.857 225.273,176.505 225.289 C 176.365 225.295,175.906 225.487,175.486 225.714 M155.711 239.037 C 155.414 239.261,155.297 239.444,155.449 239.444 C 155.602 239.444,155.970 239.261,156.266 239.037 C 156.563 238.812,156.681 238.629,156.528 238.629 C 156.375 238.629,156.007 238.812,155.711 239.037 M150.155 242.370 C 149.859 242.594,149.741 242.778,149.894 242.778 C 150.047 242.778,150.414 242.594,150.711 242.370 C 151.007 242.146,151.125 241.962,150.972 241.962 C 150.819 241.962,150.452 242.146,150.155 242.370 M143.333 246.092 C 143.333 246.235,143.074 246.434,142.757 246.534 C 142.440 246.635,142.240 246.778,142.314 246.851 C 142.387 246.924,142.928 246.731,143.515 246.421 C 144.388 245.961,144.469 245.856,143.958 245.846 C 143.615 245.839,143.333 245.950,143.333 246.092 M133.056 251.474 C 132.521 251.642,131.918 251.942,131.716 252.140 C 131.514 252.338,131.212 252.500,131.045 252.500 C 130.878 252.500,130.805 252.564,130.884 252.643 C 131.031 252.790,134.167 251.441,134.167 251.230 C 134.167 251.164,134.135 251.124,134.097 251.139 C 134.059 251.155,133.590 251.305,133.056 251.474 M129.444 253.194 C 129.063 253.413,128.875 253.591,129.028 253.591 C 129.181 253.591,129.618 253.413,130.000 253.194 C 130.382 252.976,130.569 252.797,130.417 252.797 C 130.264 252.797,129.826 252.976,129.444 253.194 M114.295 259.498 C 113.246 260.134,113.698 260.109,115.139 259.451 C 115.800 259.149,116.021 258.954,115.683 258.971 C 115.372 258.986,114.747 259.223,114.295 259.498 M104.236 262.786 C 103.306 263.160,103.480 263.350,104.444 263.014 C 104.903 262.854,105.278 262.673,105.278 262.612 C 105.278 262.447,104.940 262.504,104.236 262.786 M97.315 264.621 C 97.315 265.056,97.485 265.089,98.010 264.757 C 98.296 264.575,98.259 264.490,97.848 264.382 C 97.515 264.295,97.315 264.385,97.315 264.621 M92.388 265.725 C 92.224 266.151,92.373 266.176,93.180 265.860 C 93.700 265.657,93.698 265.643,93.128 265.494 C 92.762 265.398,92.479 265.487,92.388 265.725 M84.268 267.283 C 84.082 267.584,84.772 267.548,85.274 267.230 C 85.596 267.027,85.546 266.980,85.045 267.017 C 84.691 267.044,84.342 267.164,84.268 267.283 M77.315 268.156 C 77.315 268.393,77.515 268.483,77.848 268.396 C 78.259 268.288,78.296 268.203,78.010 268.021 C 77.485 267.689,77.315 267.722,77.315 268.156 M58.889 269.227 C 58.889 269.494,59.138 269.478,59.861 269.165 C 60.341 268.958,60.312 268.931,59.653 268.968 C 59.233 268.991,58.889 269.108,58.889 269.227 " stroke="none" fill="#e50804" fill-rule="evenodd"></path><path id="path1" d="M367.361 56.314 C 330.337 57.378,294.933 72.875,255.675 105.202 C 251.792 108.399,251.601 108.563,244.746 114.583 C 236.299 122.001,228.152 129.878,205.399 152.626 C 181.138 176.882,176.919 180.998,167.499 189.603 C 118.759 234.124,79.915 252.036,33.889 251.212 C 30.146 251.145,26.708 251.045,26.250 250.989 C 25.792 250.934,24.229 250.805,22.778 250.703 C 21.326 250.601,18.764 250.338,17.083 250.117 C 15.403 249.897,13.590 249.662,13.056 249.596 C 9.773 249.189,2.064 247.799,0.486 247.329 C 0.041 247.197,0.000 247.480,0.000 250.656 L 0.000 254.127 1.458 254.547 C 2.260 254.777,3.542 255.109,4.306 255.284 C 5.069 255.459,5.944 255.709,6.250 255.840 C 6.556 255.971,7.243 256.160,7.778 256.258 C 8.313 256.357,10.250 256.783,12.083 257.206 C 15.385 257.967,18.511 258.617,19.583 258.765 C 19.889 258.808,20.139 258.869,20.139 258.901 C 20.139 258.973,20.900 259.097,22.361 259.262 C 22.972 259.332,23.472 259.417,23.472 259.452 C 23.472 259.532,24.166 259.633,26.111 259.839 C 26.951 259.928,29.264 260.235,31.250 260.522 C 33.236 260.809,35.111 261.042,35.417 261.039 C 35.722 261.037,37.035 261.120,38.333 261.223 C 43.427 261.630,45.076 261.693,50.972 261.701 C 57.987 261.711,61.707 261.540,67.452 260.945 C 72.673 260.404,72.698 260.401,74.098 260.157 C 74.748 260.044,75.560 259.920,75.904 259.881 C 77.111 259.747,80.434 259.113,81.963 258.725 C 82.813 258.510,83.813 258.334,84.185 258.334 C 84.830 258.335,85.984 258.050,90.972 256.659 C 92.194 256.318,94.444 255.706,95.972 255.299 C 98.595 254.601,101.734 253.478,110.139 250.233 C 113.333 248.999,115.762 247.895,126.327 242.874 C 127.745 242.201,129.558 241.233,130.355 240.723 C 131.153 240.214,132.743 239.326,133.889 238.751 C 135.035 238.175,136.472 237.365,137.083 236.949 C 137.694 236.534,138.819 235.854,139.583 235.437 C 140.347 235.021,141.847 234.120,142.917 233.434 C 143.986 232.749,146.111 231.389,147.639 230.414 C 149.167 229.438,151.167 228.125,152.083 227.498 C 153.000 226.870,154.188 226.057,154.722 225.691 C 155.257 225.325,156.507 224.456,157.500 223.760 C 158.493 223.063,159.743 222.191,160.278 221.822 C 160.813 221.453,161.670 220.805,162.183 220.383 C 162.695 219.961,163.633 219.264,164.266 218.833 C 165.546 217.964,167.716 216.336,170.117 214.444 C 170.990 213.757,172.102 212.906,172.588 212.554 C 173.074 212.202,173.722 211.700,174.028 211.439 C 174.333 211.178,175.021 210.659,175.556 210.285 C 176.090 209.912,176.692 209.381,176.892 209.107 C 177.092 208.833,177.592 208.434,178.003 208.221 C 178.414 208.008,179.208 207.414,179.767 206.903 C 180.327 206.391,181.433 205.472,182.226 204.861 C 183.663 203.754,184.152 203.351,186.831 201.067 C 187.609 200.404,188.779 199.424,189.431 198.889 C 190.083 198.354,191.071 197.520,191.627 197.034 C 192.184 196.549,193.764 195.194,195.139 194.024 C 196.514 192.853,198.091 191.500,198.643 191.017 C 199.195 190.534,200.146 189.701,200.757 189.167 C 201.369 188.632,202.363 187.757,202.966 187.222 C 203.570 186.688,204.658 185.750,205.383 185.139 C 206.109 184.528,207.121 183.653,207.633 183.194 C 208.145 182.736,209.079 181.924,209.708 181.389 C 210.338 180.854,211.130 180.148,211.468 179.821 C 211.806 179.493,216.271 175.577,221.389 171.119 C 226.507 166.661,231.141 162.617,231.687 162.132 C 232.233 161.647,233.212 160.813,233.863 160.278 C 234.515 159.743,235.506 158.911,236.066 158.429 C 237.534 157.165,239.443 155.564,240.817 154.444 C 242.923 152.729,244.838 151.130,245.724 150.346 C 246.199 149.927,247.306 149.021,248.184 148.333 C 249.062 147.646,250.326 146.646,250.993 146.111 C 251.659 145.576,252.845 144.639,253.628 144.028 C 254.411 143.417,255.610 142.448,256.293 141.875 C 256.975 141.302,257.623 140.833,257.733 140.833 C 257.842 140.833,258.310 140.490,258.772 140.069 C 259.234 139.649,260.106 138.958,260.709 138.532 C 261.312 138.107,262.556 137.204,263.472 136.525 C 269.081 132.374,274.523 128.576,278.195 126.250 C 279.160 125.639,280.179 124.941,280.461 124.699 C 280.742 124.457,281.722 123.846,282.639 123.342 C 283.556 122.837,284.667 122.121,285.109 121.752 C 285.551 121.383,286.551 120.764,287.331 120.378 C 288.112 119.992,289.313 119.306,290.000 118.855 C 294.315 116.021,309.152 108.541,316.111 105.691 C 321.170 103.620,330.600 100.225,333.056 99.592 C 334.354 99.257,336.354 98.717,337.500 98.392 C 342.977 96.839,348.594 95.642,354.722 94.722 C 355.868 94.550,357.493 94.293,358.333 94.152 C 360.010 93.868,364.501 93.437,368.611 93.164 C 371.994 92.940,383.553 92.946,386.806 93.174 C 392.941 93.603,395.977 93.878,397.917 94.180 C 398.833 94.323,399.677 94.441,399.792 94.442 C 399.906 94.444,400.000 86.447,400.000 76.672 L 400.000 58.899 399.306 58.755 C 398.924 58.676,398.321 58.552,397.967 58.480 C 397.212 58.325,389.872 57.306,388.056 57.103 C 383.037 56.543,372.877 56.155,367.361 56.314 " stroke="none" fill="#30a9ee" fill-rule="evenodd"></path><path id="path2" d="M359.306 37.703 C 328.384 39.627,299.323 51.847,267.162 76.451 C 252.187 87.907,232.270 106.842,207.337 133.324 C 205.975 134.771,203.799 137.080,202.500 138.457 C 201.201 139.833,199.139 142.023,197.917 143.323 C 196.694 144.623,195.632 145.753,195.556 145.833 C 195.479 145.914,194.416 147.041,193.193 148.337 C 183.570 158.535,179.632 162.596,170.001 172.246 C 155.890 186.385,147.109 194.551,138.212 201.806 C 137.463 202.417,136.319 203.354,135.671 203.889 C 105.624 228.671,73.565 243.073,43.194 245.432 C 41.819 245.539,40.382 245.670,40.000 245.723 C 38.289 245.962,23.659 246.037,20.278 245.824 C 13.424 245.392,3.674 244.215,0.764 243.469 L 0.000 243.273 0.000 245.229 C 0.000 246.851,0.083 247.209,0.486 247.329 C 2.064 247.799,9.773 249.189,13.056 249.596 C 13.590 249.662,15.403 249.897,17.083 250.117 C 18.764 250.338,21.326 250.601,22.778 250.703 C 24.229 250.805,25.792 250.934,26.250 250.989 C 26.708 251.045,30.146 251.145,33.889 251.212 C 79.915 252.036,118.759 234.124,167.499 189.603 C 176.919 180.998,181.138 176.882,205.399 152.626 C 228.152 129.878,236.299 122.001,244.746 114.583 C 251.601 108.563,251.792 108.399,255.675 105.202 C 301.711 67.294,343.231 52.191,387.932 57.094 C 389.931 57.313,397.202 58.323,398.037 58.497 C 398.429 58.579,399.031 58.703,399.375 58.773 L 400.000 58.899 400.000 49.759 L 400.000 40.619 396.875 40.043 C 385.550 37.954,370.417 37.012,359.306 37.703 " stroke="none" fill="#53e425" fill-rule="evenodd"></path><path id="path3" d="M375.478 93.781 C 375.434 93.825,373.965 93.885,372.213 93.914 C 369.209 93.964,362.305 94.477,359.861 94.833 C 359.250 94.921,357.813 95.129,356.667 95.295 C 351.953 95.975,349.684 96.394,344.028 97.630 C 327.383 101.266,306.912 109.736,289.583 120.157 C 282.546 124.389,280.242 125.871,271.697 131.667 C 269.374 133.242,265.959 135.741,261.036 139.466 C 255.637 143.553,255.742 143.471,252.105 146.389 C 250.296 147.840,248.408 149.340,247.910 149.722 C 246.873 150.517,245.106 151.965,242.488 154.166 C 241.489 155.007,239.997 156.257,239.172 156.944 C 236.639 159.058,231.346 163.587,229.444 165.270 C 228.451 166.148,227.201 167.227,226.667 167.668 C 226.132 168.108,225.559 168.594,225.393 168.748 C 225.227 168.902,224.303 169.715,223.340 170.556 C 222.376 171.396,221.324 172.314,221.002 172.597 C 220.680 172.879,219.740 173.692,218.914 174.403 C 218.087 175.113,217.212 175.894,216.969 176.138 C 216.320 176.791,198.704 192.170,197.114 193.472 C 196.368 194.083,194.743 195.468,193.504 196.549 C 192.264 197.630,189.563 199.921,187.500 201.641 C 185.438 203.360,183.500 204.976,183.194 205.231 C 182.889 205.486,180.764 207.185,178.472 209.006 C 176.181 210.827,173.806 212.715,173.194 213.202 C 139.398 240.118,105.789 256.413,74.704 260.954 C 54.505 263.904,30.010 262.649,10.278 257.652 C 10.049 257.594,9.236 257.408,8.472 257.239 C 7.026 256.919,5.626 256.535,2.384 255.571 C 1.327 255.257,0.358 255.000,0.231 255.000 C 0.104 255.000,0.000 255.929,0.000 257.064 L 0.000 259.127 1.458 259.546 C 2.260 259.776,3.292 260.052,3.750 260.160 C 4.208 260.267,4.732 260.471,4.914 260.614 C 5.096 260.757,5.483 260.833,5.775 260.784 C 6.066 260.735,6.605 260.839,6.972 261.016 C 7.564 261.303,8.376 261.605,8.748 261.677 C 8.820 261.691,9.287 261.826,9.787 261.977 C 10.286 262.128,11.105 262.295,11.606 262.349 C 12.107 262.402,12.670 262.572,12.856 262.725 C 13.042 262.878,13.819 263.087,14.583 263.189 C 15.347 263.291,16.160 263.447,16.389 263.535 C 17.328 263.896,19.159 264.337,20.683 264.570 C 21.287 264.662,21.850 264.840,21.933 264.966 C 22.016 265.091,22.396 265.168,22.778 265.136 C 23.405 265.083,24.597 265.315,27.917 266.134 C 28.528 266.284,29.340 266.408,29.722 266.409 C 30.485 266.411,32.639 266.602,32.639 266.668 C 32.639 266.768,33.861 266.995,35.139 267.133 C 35.903 267.216,36.662 267.391,36.825 267.523 C 36.989 267.655,37.489 267.747,37.936 267.727 C 38.624 267.697,43.194 267.987,43.194 268.061 C 43.194 268.075,44.069 268.136,45.139 268.196 C 50.064 268.475,52.274 268.608,54.722 268.774 C 56.174 268.873,57.486 268.945,57.639 268.935 C 59.818 268.793,62.237 268.787,62.292 268.923 C 62.330 269.019,62.959 268.943,63.689 268.756 C 64.420 268.568,65.070 268.500,65.134 268.603 C 65.286 268.850,67.747 268.729,73.056 268.216 C 73.590 268.164,75.272 268.036,76.793 267.931 C 78.313 267.826,79.635 267.693,79.730 267.634 C 79.824 267.576,81.009 267.390,82.361 267.222 C 83.714 267.054,84.934 266.847,85.072 266.761 C 85.210 266.676,85.845 266.569,86.481 266.525 C 87.118 266.481,88.220 266.244,88.931 265.999 C 89.642 265.753,90.406 265.622,90.630 265.708 C 90.854 265.794,91.817 265.601,92.771 265.280 C 93.724 264.959,94.647 264.746,94.822 264.807 C 94.996 264.868,95.735 264.743,96.464 264.530 C 97.194 264.316,97.944 264.230,98.131 264.338 C 98.319 264.445,98.376 264.428,98.259 264.299 C 97.972 263.983,99.687 263.285,100.285 263.475 C 100.739 263.619,105.651 262.016,107.167 261.230 C 107.563 261.024,108.019 260.958,108.180 261.083 C 108.499 261.331,118.061 257.863,118.399 257.377 C 118.511 257.216,118.605 257.184,118.607 257.307 C 118.609 257.431,118.955 257.339,119.375 257.103 C 120.198 256.642,126.004 254.167,126.263 254.167 C 126.994 254.167,138.607 248.525,138.609 248.169 C 138.611 247.889,142.286 246.252,142.917 246.251 C 143.069 246.250,143.288 246.106,143.402 245.929 C 143.516 245.753,144.411 245.233,145.392 244.775 C 146.373 244.316,147.315 243.679,147.486 243.359 C 147.657 243.039,147.989 242.778,148.222 242.778 C 148.753 242.778,153.889 240.028,153.889 239.743 C 153.889 239.629,154.821 239.055,155.961 238.469 C 157.101 237.882,158.098 237.234,158.177 237.027 C 158.257 236.821,158.855 236.402,159.508 236.096 C 161.120 235.341,162.537 234.432,163.275 233.681 C 163.613 233.337,164.139 233.056,164.444 233.056 C 164.750 233.056,165.000 232.954,165.000 232.829 C 165.000 232.705,165.438 232.394,165.972 232.139 C 166.507 231.884,166.944 231.498,166.944 231.282 C 166.944 230.871,168.443 230.202,168.726 230.486 C 168.816 230.575,168.889 230.506,168.889 230.331 C 168.889 230.157,169.264 229.820,169.722 229.583 C 170.181 229.346,170.556 228.999,170.556 228.812 C 170.557 228.625,171.319 228.101,172.250 227.646 C 173.182 227.192,174.106 226.590,174.303 226.308 C 174.649 225.814,175.529 225.235,177.431 224.253 C 177.927 223.996,178.333 223.622,178.333 223.421 C 178.333 223.220,178.458 223.056,178.611 223.056 C 178.764 223.056,178.951 223.056,179.028 223.056 C 179.104 223.056,179.404 222.837,179.694 222.569 C 181.114 221.261,181.628 220.868,182.847 220.159 C 183.573 219.737,184.167 219.277,184.167 219.138 C 184.167 218.998,184.792 218.499,185.557 218.028 C 186.322 217.558,187.105 216.965,187.298 216.711 C 187.681 216.206,188.416 215.699,189.358 215.290 C 189.693 215.145,190.103 214.771,190.271 214.458 C 190.438 214.145,190.690 213.889,190.831 213.889 C 191.264 213.889,193.164 212.479,194.994 210.799 C 195.265 210.550,195.535 210.201,195.594 210.022 C 195.654 209.844,195.982 209.676,196.324 209.651 C 196.665 209.625,196.944 209.503,196.944 209.379 C 196.944 209.256,197.246 209.017,197.615 208.849 C 197.984 208.681,198.348 208.309,198.423 208.022 C 198.498 207.735,198.758 207.500,199.002 207.500 C 199.245 207.500,199.444 207.375,199.444 207.222 C 199.444 207.069,199.622 206.944,199.839 206.944 C 200.056 206.944,200.739 206.444,201.356 205.833 C 201.973 205.222,202.605 204.722,202.761 204.722 C 202.916 204.722,203.248 204.410,203.498 204.028 C 203.748 203.646,204.052 203.333,204.174 203.333 C 204.642 203.333,206.667 201.827,206.667 201.478 C 206.667 201.276,206.849 201.111,207.071 201.111 C 207.294 201.111,207.825 200.674,208.252 200.139 C 208.679 199.604,209.116 199.167,209.224 199.167 C 209.688 199.167,212.306 197.120,213.575 195.764 C 213.969 195.344,214.393 195.000,214.518 195.000 C 214.890 195.000,216.368 193.842,217.884 192.361 C 218.666 191.597,219.663 190.787,220.100 190.561 C 220.538 190.336,220.997 189.883,221.122 189.555 C 221.246 189.227,221.670 188.879,222.063 188.780 C 222.456 188.681,222.778 188.478,222.778 188.328 C 222.778 188.178,222.924 188.056,223.102 188.056 C 223.421 188.056,224.200 187.401,225.995 185.625 C 226.497 185.128,226.972 184.722,227.052 184.722 C 227.390 184.722,229.300 183.259,229.242 183.045 C 229.207 182.917,229.425 182.733,229.728 182.637 C 230.030 182.541,230.278 182.346,230.278 182.204 C 230.278 182.061,230.468 181.944,230.701 181.944 C 230.934 181.944,231.247 181.624,231.395 181.233 C 231.544 180.842,231.774 180.589,231.907 180.671 C 232.039 180.753,232.361 180.584,232.622 180.296 C 232.883 180.008,233.385 179.700,233.737 179.611 C 234.090 179.523,234.451 179.173,234.539 178.835 C 234.628 178.496,234.787 178.306,234.894 178.412 C 235.000 178.519,235.537 178.140,236.085 177.571 C 236.634 177.001,237.146 176.526,237.222 176.515 C 237.753 176.439,239.451 175.139,239.590 174.702 C 239.683 174.408,239.907 174.163,240.088 174.157 C 240.521 174.145,241.667 173.182,241.667 172.830 C 241.667 172.678,242.010 172.434,242.431 172.288 C 242.851 172.141,243.632 171.603,244.167 171.091 C 244.701 170.580,245.639 169.890,246.250 169.559 C 246.861 169.227,247.516 168.659,247.704 168.297 C 247.893 167.935,248.049 167.730,248.051 167.841 C 248.057 168.116,250.437 166.591,250.479 166.284 C 250.498 166.150,251.023 165.737,251.646 165.366 C 252.268 164.995,252.778 164.519,252.778 164.309 C 252.778 164.098,253.038 163.844,253.357 163.742 C 254.318 163.437,256.667 161.883,256.667 161.552 C 256.667 161.249,256.992 161.041,258.819 160.177 C 259.316 159.943,259.722 159.587,259.722 159.388 C 259.722 159.188,260.128 158.846,260.625 158.628 C 261.122 158.410,261.840 157.906,262.222 157.508 C 262.604 157.110,263.510 156.440,264.236 156.019 C 264.962 155.598,265.556 155.143,265.556 155.008 C 265.556 154.872,266.431 154.289,267.500 153.711 C 268.569 153.133,269.444 152.516,269.444 152.339 C 269.444 152.161,270.257 151.599,271.250 151.090 C 272.243 150.581,273.056 150.017,273.056 149.838 C 273.056 149.513,274.674 148.697,275.069 148.823 C 275.184 148.859,275.278 148.784,275.278 148.655 C 275.278 148.527,275.903 148.081,276.667 147.666 C 277.431 147.250,278.056 146.730,278.056 146.510 C 278.056 146.291,278.274 146.111,278.542 146.110 C 278.809 146.109,279.590 145.735,280.278 145.278 C 280.965 144.821,281.654 144.446,281.808 144.446 C 281.962 144.445,282.231 144.216,282.405 143.937 C 282.579 143.658,283.922 142.815,285.388 142.062 C 286.855 141.310,288.055 140.538,288.055 140.347 C 288.055 140.156,288.181 139.984,288.333 139.965 C 288.486 139.946,288.705 139.912,288.819 139.888 C 288.934 139.865,289.840 139.394,290.833 138.841 C 291.826 138.288,292.909 137.755,293.239 137.657 C 293.569 137.559,294.041 137.171,294.287 136.795 C 294.533 136.419,294.891 136.111,295.082 136.111 C 295.273 136.111,296.927 135.378,298.756 134.481 C 300.586 133.584,302.351 132.768,302.678 132.666 C 303.006 132.565,303.330 132.267,303.400 132.005 C 303.470 131.742,304.077 131.319,304.750 131.064 C 305.422 130.808,307.035 130.143,308.333 129.585 C 309.632 129.027,310.819 128.541,310.972 128.505 C 311.125 128.469,311.767 128.171,312.399 127.841 C 313.031 127.512,314.844 126.723,316.427 126.089 C 318.010 125.454,319.431 124.847,319.583 124.740 C 319.736 124.633,320.580 124.310,321.458 124.021 C 322.337 123.732,323.056 123.397,323.056 123.276 C 323.056 123.155,323.231 123.056,323.446 123.056 C 323.661 123.056,324.684 122.676,325.718 122.212 C 326.753 121.747,327.784 121.438,328.009 121.525 C 328.413 121.680,330.410 121.028,334.386 119.444 C 335.500 119.000,336.573 118.699,336.771 118.775 C 337.123 118.910,340.874 117.795,341.881 117.256 C 342.162 117.106,342.552 117.083,342.749 117.204 C 343.097 117.419,345.924 116.693,347.111 116.084 C 347.432 115.919,347.932 115.819,348.222 115.862 C 348.512 115.905,349.007 115.853,349.321 115.746 C 349.635 115.640,350.510 115.494,351.265 115.423 C 353.396 115.222,354.830 114.947,355.183 114.671 C 355.360 114.532,356.172 114.365,356.988 114.299 C 357.805 114.233,359.191 114.121,360.070 114.050 C 360.948 113.979,361.821 113.827,362.008 113.711 C 362.195 113.595,363.306 113.476,364.476 113.445 C 365.647 113.415,366.849 113.313,367.148 113.218 C 367.835 113.000,372.345 112.783,378.611 112.666 C 381.285 112.616,383.597 112.543,383.750 112.505 C 383.903 112.466,384.122 112.462,384.236 112.497 C 384.626 112.614,387.049 112.736,389.722 112.772 C 389.951 112.775,390.764 112.840,391.528 112.916 C 392.292 112.993,393.698 113.086,394.652 113.125 C 395.607 113.163,396.388 113.264,396.388 113.349 C 396.389 113.434,396.795 113.472,397.292 113.433 C 397.788 113.395,398.601 113.471,399.097 113.603 L 400.000 113.844 400.000 104.591 L 400.000 95.338 399.375 95.182 C 396.947 94.574,375.918 93.341,375.478 93.781 " stroke="none" fill="#8c33e4" fill-rule="evenodd"></path><path id="path4" d="M357.917 18.520 C 311.091 21.185,271.744 44.767,219.444 101.510 C 218.604 102.421,217.667 103.432,217.361 103.755 C 217.056 104.078,215.806 105.454,214.583 106.814 C 212.186 109.479,209.679 112.254,208.064 114.028 C 207.132 115.052,203.783 118.831,201.806 121.091 C 201.347 121.615,200.785 122.243,200.556 122.487 C 200.326 122.731,199.326 123.865,198.333 125.007 C 197.340 126.149,196.465 127.146,196.389 127.222 C 196.313 127.299,195.319 128.424,194.182 129.722 C 193.044 131.021,191.982 132.208,191.821 132.361 C 191.660 132.514,191.103 133.139,190.584 133.750 C 190.064 134.361,188.802 135.799,187.778 136.944 C 186.754 138.090,185.491 139.521,184.972 140.124 C 184.453 140.727,183.715 141.550,183.333 141.954 C 182.951 142.357,182.264 143.116,181.806 143.640 C 181.347 144.163,179.285 146.455,177.222 148.732 C 175.160 151.010,173.285 153.084,173.056 153.341 C 165.673 161.644,149.478 178.349,141.944 185.433 C 101.784 223.195,66.713 239.880,25.676 240.750 C 17.587 240.922,9.686 240.586,4.188 239.838 C -0.312 239.226,0.000 239.113,0.000 241.361 L 0.000 243.278 1.319 243.567 C 3.289 244.000,7.849 244.686,10.833 245.000 C 54.125 249.556,90.006 238.756,128.333 209.633 C 132.366 206.568,133.469 205.705,135.671 203.889 C 136.319 203.354,137.463 202.417,138.212 201.806 C 147.109 194.551,155.890 186.385,170.001 172.246 C 179.632 162.596,183.570 158.535,193.193 148.337 C 194.416 147.041,195.479 145.914,195.556 145.833 C 195.632 145.753,196.694 144.623,197.917 143.323 C 199.139 142.023,201.201 139.833,202.500 138.457 C 203.799 137.080,205.975 134.771,207.337 133.324 C 229.980 109.274,247.949 91.948,262.307 80.324 C 307.090 44.065,349.809 31.247,396.667 40.009 C 398.271 40.309,399.677 40.555,399.792 40.555 C 399.906 40.555,400.000 36.431,400.000 31.389 C 400.000 26.347,399.906 22.222,399.792 22.222 C 399.677 22.222,398.708 22.040,397.639 21.819 C 385.220 19.245,368.936 17.892,357.917 18.520 " stroke="none" fill="#f8cd04" fill-rule="evenodd"></path><path id="path5" d="M344.861 0.306 C 319.786 3.597,295.919 13.844,272.222 31.495 C 267.797 34.791,259.432 41.580,256.250 44.457 C 249.748 50.336,247.181 52.782,240.833 59.149 C 236.785 63.210,232.660 67.407,231.667 68.475 C 227.537 72.916,223.240 77.650,221.091 80.124 C 220.567 80.727,219.451 81.981,218.611 82.909 C 217.771 83.838,216.396 85.396,215.556 86.372 C 214.715 87.349,213.903 88.283,213.750 88.449 C 213.597 88.614,212.785 89.563,211.946 90.556 C 211.107 91.549,210.356 92.424,210.278 92.500 C 210.199 92.576,209.449 93.451,208.611 94.444 C 207.773 95.438,207.018 96.313,206.934 96.389 C 206.849 96.465,205.536 98.022,204.015 99.849 C 196.455 108.930,194.590 111.155,194.020 111.773 C 193.862 111.944,190.747 115.708,187.096 120.139 C 183.445 124.569,180.379 128.257,180.281 128.333 C 180.184 128.410,178.559 130.347,176.672 132.639 C 174.784 134.931,172.792 137.309,172.245 137.924 C 171.698 138.539,170.614 139.789,169.836 140.702 C 166.222 144.943,159.402 152.849,159.178 153.056 C 159.095 153.132,158.028 154.319,156.807 155.694 C 155.585 157.069,154.523 158.257,154.446 158.333 C 154.369 158.410,152.994 159.910,151.391 161.667 C 108.163 209.053,71.692 231.243,29.722 235.695 C 22.335 236.478,3.990 236.325,0.486 235.451 C 0.057 235.344,0.000 235.564,0.000 237.332 L 0.000 239.334 3.958 239.807 C 51.388 245.481,92.960 229.996,136.528 190.428 C 146.693 181.196,163.099 164.539,173.056 153.341 C 173.285 153.084,175.160 151.010,177.222 148.732 C 179.285 146.455,181.347 144.163,181.806 143.640 C 182.264 143.116,182.951 142.357,183.333 141.954 C 183.715 141.550,184.453 140.727,184.972 140.124 C 185.491 139.521,186.754 138.090,187.778 136.944 C 188.802 135.799,190.064 134.361,190.584 133.750 C 191.103 133.139,191.660 132.514,191.821 132.361 C 191.982 132.208,193.044 131.021,194.182 129.722 C 195.319 128.424,196.313 127.299,196.389 127.222 C 196.465 127.146,197.340 126.149,198.333 125.007 C 199.326 123.865,200.326 122.731,200.556 122.487 C 200.785 122.243,201.347 121.615,201.806 121.091 C 203.783 118.831,207.132 115.052,208.064 114.028 C 209.679 112.254,212.186 109.479,214.583 106.814 C 215.806 105.454,217.056 104.078,217.361 103.755 C 217.667 103.432,218.604 102.421,219.444 101.510 C 284.407 31.029,333.644 8.885,396.944 21.683 C 398.396 21.977,399.677 22.218,399.792 22.220 C 400.027 22.223,400.075 5.446,399.843 4.583 C 399.629 3.789,393.813 2.511,381.944 0.648 C 378.574 0.119,348.406 -0.159,344.861 0.306 " stroke="none" fill="#fc8304" fill-rule="evenodd"></path><path id="path6" d="M373.254 92.941 C 373.221 92.969,371.569 93.066,369.583 93.156 C 365.440 93.345,360.556 93.777,358.333 94.152 C 357.493 94.294,355.868 94.550,354.722 94.722 C 348.594 95.642,342.977 96.839,337.500 98.392 C 336.354 98.717,334.354 99.257,333.056 99.592 C 330.600 100.225,321.170 103.620,316.111 105.691 C 309.152 108.541,294.315 116.021,290.000 118.855 C 289.313 119.306,288.112 119.992,287.331 120.378 C 286.551 120.764,285.551 121.383,285.109 121.752 C 284.667 122.121,283.556 122.837,282.639 123.342 C 281.722 123.846,280.742 124.457,280.461 124.699 C 280.179 124.941,279.160 125.639,278.195 126.250 C 274.523 128.576,269.081 132.374,263.472 136.525 C 262.556 137.204,261.312 138.107,260.709 138.532 C 260.106 138.958,259.234 139.649,258.772 140.069 C 258.310 140.490,257.842 140.833,257.733 140.833 C 257.623 140.833,256.975 141.302,256.293 141.875 C 255.610 142.448,254.411 143.417,253.628 144.028 C 252.845 144.639,251.659 145.576,250.993 146.111 C 250.326 146.646,249.062 147.646,248.184 148.333 C 247.306 149.021,246.199 149.927,245.724 150.346 C 244.838 151.130,242.923 152.729,240.817 154.444 C 239.443 155.564,237.534 157.165,236.066 158.429 C 235.506 158.911,234.515 159.743,233.863 160.278 C 233.212 160.813,232.233 161.647,231.687 162.132 C 231.141 162.617,226.507 166.661,221.389 171.119 C 216.271 175.577,211.806 179.493,211.468 179.821 C 211.130 180.148,210.338 180.854,209.708 181.389 C 209.079 181.924,208.145 182.736,207.633 183.194 C 207.121 183.653,206.109 184.528,205.383 185.139 C 204.658 185.750,203.619 186.642,203.074 187.121 C 202.529 187.600,201.583 188.430,200.972 188.964 C 200.361 189.499,199.361 190.377,198.750 190.916 C 198.139 191.455,196.514 192.853,195.139 194.024 C 193.764 195.194,192.184 196.549,191.627 197.034 C 191.071 197.520,190.083 198.354,189.431 198.889 C 188.779 199.424,187.609 200.404,186.831 201.067 C 184.152 203.351,183.663 203.754,182.226 204.861 C 181.433 205.472,180.327 206.391,179.767 206.903 C 179.208 207.414,178.414 208.008,178.003 208.221 C 177.592 208.434,177.092 208.833,176.892 209.107 C 176.692 209.381,176.090 209.912,175.556 210.285 C 175.021 210.659,174.333 211.178,174.028 211.439 C 173.722 211.700,173.074 212.202,172.588 212.554 C 172.102 212.906,170.990 213.757,170.117 214.444 C 167.716 216.336,165.546 217.964,164.266 218.833 C 163.633 219.264,162.695 219.961,162.183 220.383 C 161.670 220.805,160.813 221.453,160.278 221.822 C 159.743 222.191,158.493 223.063,157.500 223.760 C 156.507 224.456,155.257 225.325,154.722 225.691 C 154.188 226.057,153.000 226.870,152.083 227.498 C 151.167 228.125,149.167 229.438,147.639 230.414 C 146.111 231.389,143.986 232.749,142.917 233.434 C 141.847 234.120,140.347 235.021,139.583 235.437 C 138.819 235.854,137.694 236.534,137.083 236.949 C 136.472 237.365,135.035 238.175,133.889 238.751 C 132.743 239.326,131.153 240.214,130.355 240.723 C 129.558 241.233,127.745 242.201,126.327 242.874 C 115.762 247.895,113.333 248.999,110.139 250.233 C 101.734 253.478,98.595 254.601,95.972 255.299 C 94.444 255.706,92.194 256.318,90.972 256.659 C 85.984 258.050,84.830 258.335,84.185 258.334 C 83.813 258.334,82.813 258.510,81.963 258.725 C 80.434 259.113,77.111 259.747,75.904 259.881 C 75.560 259.920,74.748 260.044,74.098 260.157 C 72.698 260.401,72.673 260.404,67.452 260.945 C 61.707 261.540,57.987 261.711,50.972 261.701 C 45.076 261.693,43.427 261.630,38.333 261.223 C 37.035 261.120,35.722 261.037,35.417 261.039 C 35.111 261.042,33.236 260.809,31.250 260.522 C 29.264 260.235,26.951 259.928,26.111 259.839 C 24.166 259.633,23.472 259.532,23.472 259.452 C 23.472 259.417,22.972 259.332,22.361 259.262 C 20.900 259.097,20.139 258.973,20.139 258.901 C 20.139 258.869,19.889 258.808,19.583 258.765 C 18.511 258.617,15.385 257.967,12.083 257.206 C 10.250 256.783,8.313 256.357,7.778 256.258 C 7.243 256.160,6.556 255.974,6.250 255.846 C 5.944 255.718,4.569 255.332,3.194 254.988 C 1.819 254.645,0.538 254.306,0.347 254.236 C 0.156 254.165,0.000 254.284,0.000 254.500 C 0.000 254.752,0.773 255.116,2.153 255.513 C 3.337 255.854,4.931 256.313,5.694 256.532 C 6.458 256.752,7.708 257.070,8.472 257.239 C 9.236 257.408,10.049 257.594,10.278 257.652 C 30.010 262.649,54.505 263.904,74.704 260.954 C 105.789 256.413,139.398 240.118,173.194 213.202 C 173.806 212.715,176.181 210.827,178.472 209.006 C 180.764 207.185,182.889 205.486,183.194 205.231 C 183.500 204.976,185.438 203.360,187.500 201.641 C 189.563 199.921,192.264 197.630,193.504 196.549 C 194.743 195.468,196.368 194.083,197.114 193.472 C 198.704 192.170,216.320 176.791,216.969 176.138 C 217.212 175.894,218.087 175.113,218.914 174.403 C 219.740 173.692,220.680 172.879,221.002 172.597 C 221.324 172.314,222.376 171.396,223.340 170.556 C 224.303 169.715,225.227 168.902,225.393 168.748 C 225.559 168.594,226.132 168.108,226.667 167.668 C 227.201 167.227,228.451 166.148,229.444 165.270 C 231.346 163.587,236.639 159.058,239.172 156.944 C 239.997 156.257,241.489 155.007,242.488 154.166 C 245.106 151.965,246.873 150.517,247.910 149.722 C 248.408 149.340,250.296 147.840,252.105 146.389 C 255.742 143.471,255.637 143.553,261.036 139.466 C 265.959 135.741,269.374 133.242,271.697 131.667 C 280.242 125.871,282.546 124.389,289.583 120.157 C 306.910 109.737,327.487 101.224,344.028 97.632 C 349.055 96.541,353.757 95.684,357.778 95.128 C 358.465 95.033,359.340 94.909,359.722 94.851 C 360.788 94.691,365.943 94.217,368.889 94.007 C 376.295 93.480,395.529 94.222,399.375 95.182 C 399.829 95.295,400.000 95.216,400.000 94.891 C 400.000 94.645,399.906 94.444,399.792 94.442 C 399.677 94.441,398.833 94.323,397.917 94.180 C 395.854 93.859,391.797 93.498,386.667 93.180 C 384.164 93.025,373.380 92.833,373.254 92.941 M383.472 112.500 C 382.984 112.710,383.011 112.741,383.697 112.758 C 384.150 112.770,384.405 112.661,384.306 112.500 C 384.211 112.347,384.110 112.231,384.081 112.242 C 384.052 112.252,383.778 112.369,383.472 112.500 M373.651 112.747 C 373.385 112.916,373.485 112.986,373.993 112.986 C 374.389 112.986,374.644 112.877,374.562 112.743 C 374.375 112.440,374.134 112.441,373.651 112.747 M368.178 113.082 C 368.093 113.220,368.343 113.333,368.734 113.333 C 369.585 113.333,369.653 113.175,368.889 112.975 C 368.584 112.895,368.264 112.943,368.178 113.082 M362.130 113.519 C 361.745 113.903,361.969 114.085,362.664 113.952 C 363.190 113.851,363.284 113.751,363.012 113.578 C 362.557 113.290,362.371 113.277,362.130 113.519 M358.611 114.167 C 358.288 114.376,358.369 114.437,358.975 114.440 C 359.425 114.443,359.682 114.327,359.583 114.167 C 359.370 113.822,359.145 113.822,358.611 114.167 M355.374 114.607 C 354.903 114.976,354.928 114.994,355.694 114.826 C 356.729 114.600,356.791 114.552,356.289 114.359 C 356.068 114.274,355.656 114.386,355.374 114.607 M346.736 116.211 C 345.642 116.753,346.065 116.958,347.292 116.480 C 347.941 116.228,348.524 115.979,348.588 115.927 C 348.878 115.692,347.293 115.935,346.736 116.211 M341.562 117.414 C 340.490 117.976,340.796 118.136,342.087 117.689 C 342.771 117.452,343.008 117.263,342.746 117.163 C 342.522 117.077,341.989 117.190,341.562 117.414 M334.749 119.325 C 332.919 120.156,333.005 120.518,334.845 119.729 C 335.567 119.420,336.342 119.167,336.567 119.167 C 336.793 119.167,336.900 119.042,336.806 118.889 C 336.576 118.517,336.485 118.536,334.749 119.325 M325.694 122.222 C 324.778 122.657,323.809 123.023,323.542 123.034 C 323.274 123.046,323.056 123.155,323.056 123.276 C 323.056 123.397,322.337 123.731,321.458 124.018 C 319.904 124.526,318.667 125.278,319.385 125.278 C 319.570 125.278,319.722 125.174,319.722 125.046 C 319.722 124.919,319.891 124.815,320.098 124.815 C 320.675 124.815,328.041 121.834,328.049 121.597 C 328.060 121.235,327.412 121.407,325.694 122.222 M312.128 127.950 C 311.695 128.185,311.397 128.434,311.467 128.504 C 311.653 128.690,313.056 128.009,313.056 127.733 C 313.056 127.441,313.074 127.437,312.128 127.950 M309.861 128.900 C 309.250 129.193,307.565 129.929,306.116 130.535 C 304.667 131.142,303.438 131.769,303.385 131.930 C 303.296 132.195,304.281 131.806,309.375 129.563 C 310.330 129.142,311.111 128.693,311.111 128.566 C 311.111 128.282,311.203 128.257,309.861 128.900 M296.667 135.432 C 296.285 135.642,295.606 135.975,295.159 136.171 C 294.712 136.367,294.298 136.678,294.238 136.862 C 294.178 137.045,295.013 136.766,296.092 136.240 C 297.172 135.715,298.056 135.221,298.056 135.142 C 298.056 134.896,297.389 135.036,296.667 135.432 M289.583 139.512 C 289.278 139.692,288.860 139.866,288.655 139.899 C 288.183 139.974,287.918 140.233,288.114 140.429 C 288.312 140.627,290.278 139.686,290.278 139.393 C 290.278 139.110,290.259 139.113,289.583 139.512 M283.463 143.042 C 282.929 143.259,281.989 144.167,282.299 144.167 C 282.378 144.167,282.987 143.856,283.652 143.476 C 284.798 142.820,284.679 142.549,283.463 143.042 M278.681 146.029 C 278.337 146.096,278.056 146.331,278.056 146.554 C 278.056 146.889,278.185 146.876,278.819 146.479 C 279.995 145.744,280.005 145.774,278.681 146.029 M273.958 149.096 C 273.462 149.343,273.056 149.658,273.056 149.796 C 273.056 149.934,273.149 150.001,273.264 149.945 C 274.610 149.289,275.000 149.042,275.000 148.844 C 275.000 148.562,275.062 148.547,273.958 149.096 M270.486 151.448 C 269.913 151.746,269.444 152.103,269.444 152.241 C 269.444 152.599,271.336 151.649,271.507 151.204 C 271.585 151.000,271.622 150.850,271.589 150.870 C 271.555 150.890,271.059 151.150,270.486 151.448 M266.319 154.326 C 265.899 154.553,265.556 154.857,265.556 155.000 C 265.556 155.201,267.087 154.489,267.755 153.978 C 268.121 153.697,266.960 153.978,266.319 154.326 M263.264 156.548 C 262.225 157.111,262.289 157.563,263.333 157.042 C 263.792 156.813,264.167 156.510,264.167 156.369 C 264.167 156.050,264.190 156.046,263.264 156.548 M260.208 158.803 C 259.941 158.872,259.722 159.034,259.722 159.161 C 259.722 159.288,259.972 159.327,260.278 159.247 C 260.583 159.167,260.833 158.991,260.833 158.856 C 260.833 158.722,260.802 158.626,260.764 158.643 C 260.726 158.661,260.476 158.733,260.208 158.803 M256.667 161.562 C 256.667 161.948,256.737 161.959,257.153 161.640 C 257.420 161.436,257.691 161.233,257.755 161.190 C 257.818 161.146,257.600 161.111,257.269 161.111 C 256.899 161.111,256.667 161.285,256.667 161.562 M253.681 163.581 C 252.727 164.012,252.439 164.483,253.264 164.262 C 253.830 164.110,254.876 163.378,254.702 163.255 C 254.637 163.209,254.177 163.356,253.681 163.581 M247.778 168.288 C 247.778 168.617,247.855 168.620,248.264 168.307 C 248.531 168.102,248.795 167.906,248.851 167.871 C 248.906 167.836,248.688 167.827,248.365 167.852 C 248.042 167.876,247.778 168.072,247.778 168.288 M244.712 170.575 C 244.412 171.135,244.861 170.975,246.088 170.084 C 246.152 170.038,245.937 170.000,245.612 170.000 C 245.286 170.000,244.881 170.259,244.712 170.575 M241.980 172.472 C 241.770 172.605,241.645 172.847,241.702 173.010 C 241.764 173.187,242.085 173.090,242.500 172.770 C 243.205 172.226,242.766 171.974,241.980 172.472 M239.622 174.583 C 239.534 174.813,239.568 175.000,239.697 175.000 C 239.826 175.000,240.088 174.813,240.278 174.583 C 240.559 174.244,240.545 174.167,240.203 174.167 C 239.971 174.167,239.710 174.354,239.622 174.583 M236.631 177.010 C 236.359 177.519,236.375 177.522,237.063 177.071 C 237.899 176.523,237.919 176.481,237.346 176.481 C 237.109 176.481,236.787 176.720,236.631 177.010 M231.488 180.898 C 231.220 181.332,231.548 181.398,232.071 181.016 C 232.521 180.686,232.525 180.648,232.108 180.648 C 231.852 180.648,231.573 180.761,231.488 180.898 M226.378 185.298 C 226.078 185.860,226.087 185.862,226.785 185.404 C 227.603 184.869,227.669 184.722,227.093 184.722 C 226.869 184.722,226.548 184.981,226.378 185.298 M224.325 187.103 C 223.665 187.764,223.803 187.936,224.514 187.338 C 224.858 187.048,225.191 186.779,225.255 186.739 C 225.318 186.699,225.233 186.667,225.066 186.667 C 224.899 186.667,224.565 186.863,224.325 187.103 M221.239 189.185 C 220.942 189.664,221.202 189.704,221.945 189.293 C 222.614 188.922,222.617 188.908,222.030 188.899 C 221.696 188.893,221.339 189.022,221.239 189.185 M218.858 191.458 C 218.546 192.053,218.555 192.062,219.057 191.633 C 219.346 191.386,219.771 191.115,220.000 191.030 C 220.277 190.929,220.210 190.870,219.801 190.855 C 219.431 190.842,219.056 191.082,218.858 191.458 M213.889 195.417 C 213.449 195.947,213.862 195.941,214.567 195.408 C 214.999 195.081,215.019 195.000,214.670 195.000 C 214.431 195.000,214.079 195.188,213.889 195.417 M211.794 197.241 C 211.500 197.717,211.763 197.764,212.345 197.338 C 212.796 197.009,212.810 196.944,212.431 196.944 C 212.181 196.944,211.895 197.078,211.794 197.241 M208.580 199.792 C 208.268 200.387,208.278 200.395,208.779 199.967 C 209.069 199.719,209.493 199.448,209.722 199.364 C 209.999 199.262,209.932 199.203,209.524 199.189 C 209.153 199.175,208.778 199.415,208.580 199.792 M203.739 203.630 C 203.444 204.106,203.708 204.153,204.290 203.727 C 204.740 203.398,204.754 203.333,204.375 203.333 C 204.126 203.333,203.839 203.467,203.739 203.630 M198.461 207.796 C 198.166 208.273,198.430 208.319,199.012 207.894 C 199.462 207.564,199.476 207.500,199.097 207.500 C 198.848 207.500,198.562 207.633,198.461 207.796 M196.065 209.650 C 195.615 209.751,195.097 210.564,195.495 210.547 C 195.786 210.534,196.786 209.744,196.646 209.637 C 196.581 209.587,196.320 209.593,196.065 209.650 M190.247 214.514 L 189.919 215.139 190.585 214.586 C 190.951 214.282,191.302 214.001,191.366 213.961 C 191.429 213.921,191.278 213.889,191.028 213.889 C 190.779 213.889,190.428 214.170,190.247 214.514 M187.250 216.736 C 186.882 217.334,186.889 217.342,187.391 216.911 C 187.680 216.664,188.104 216.392,188.333 216.308 C 188.631 216.199,188.590 216.149,188.192 216.133 C 187.885 216.121,187.461 216.392,187.250 216.736 M184.692 218.595 C 184.327 218.899,184.153 219.148,184.306 219.149 C 184.704 219.149,185.682 218.367,185.505 218.190 C 185.423 218.109,185.058 218.291,184.692 218.595 M181.512 220.950 C 181.216 221.166,181.035 221.405,181.112 221.481 C 181.188 221.557,181.545 221.380,181.906 221.087 C 182.660 220.476,182.322 220.357,181.512 220.950 M175.208 225.461 C 174.788 225.683,174.444 225.976,174.444 226.113 C 174.444 226.251,174.819 226.150,175.276 225.890 C 175.893 225.539,176.531 224.822,176.042 225.029 C 176.003 225.046,175.628 225.240,175.208 225.461 M171.458 228.022 C 170.962 228.248,170.556 228.594,170.556 228.791 C 170.556 229.087,171.668 228.627,172.727 227.894 C 173.151 227.601,172.164 227.700,171.458 228.022 M167.708 230.601 C 167.288 230.754,166.944 230.988,166.944 231.120 C 166.944 231.252,167.319 231.229,167.778 231.069 C 168.374 230.862,169.110 230.120,168.542 230.300 C 168.503 230.312,168.128 230.447,167.708 230.601 M163.456 233.450 C 162.635 234.050,163.073 234.127,164.167 233.574 C 164.909 233.199,165.004 233.079,164.567 233.069 C 164.252 233.062,163.753 233.233,163.456 233.450 M159.269 236.233 C 158.545 236.549,157.766 237.222,158.126 237.222 C 158.361 237.222,160.556 236.087,160.556 235.966 C 160.556 235.754,160.201 235.828,159.269 236.233 M154.792 239.051 C 154.295 239.268,153.889 239.569,153.889 239.719 C 153.889 239.868,154.326 239.782,154.861 239.527 C 155.577 239.186,156.318 238.453,155.764 238.634 C 155.726 238.646,155.288 238.834,154.792 239.051 M149.444 242.374 C 149.062 242.585,148.536 242.763,148.274 242.768 C 148.012 242.773,147.670 243.015,147.515 243.306 C 147.264 243.774,149.608 242.940,150.255 242.331 C 150.593 242.013,150.044 242.042,149.444 242.374 M140.833 246.963 C 139.840 247.401,138.903 247.809,138.750 247.869 C 138.597 247.930,138.554 248.068,138.655 248.177 C 138.842 248.379,143.056 246.551,143.056 246.268 C 143.056 246.021,142.760 246.113,140.833 246.963 M130.278 252.387 C 129.448 252.855,126.491 254.167,126.265 254.167 C 126.013 254.167,120.217 256.632,119.414 257.080 C 119.015 257.303,118.609 257.405,118.511 257.307 C 118.413 257.210,118.333 257.250,118.333 257.396 C 118.333 257.543,117.646 257.896,116.806 258.182 C 115.965 258.468,115.278 258.805,115.278 258.932 C 115.278 259.224,116.137 258.888,124.441 255.351 C 131.957 252.150,132.371 251.953,131.528 251.978 C 131.222 251.988,130.660 252.172,130.278 252.387 M107.160 261.234 C 106.765 261.438,105.993 261.754,105.444 261.936 C 104.894 262.117,104.444 262.375,104.444 262.509 C 104.444 262.748,105.604 262.397,107.466 261.592 C 107.982 261.370,108.285 261.114,108.140 261.025 C 107.995 260.935,107.554 261.029,107.160 261.234 M98.813 263.720 C 98.389 263.907,98.115 264.133,98.203 264.222 C 98.423 264.441,100.278 263.853,100.278 263.565 C 100.278 263.252,99.741 263.309,98.813 263.720 M93.333 265.139 C 92.720 265.490,92.704 265.536,93.194 265.536 C 93.500 265.536,94.063 265.357,94.444 265.139 C 95.058 264.788,95.074 264.742,94.583 264.742 C 94.278 264.742,93.715 264.921,93.333 265.139 M88.889 265.990 C 87.849 266.383,88.263 266.500,89.688 266.215 C 90.165 266.120,90.556 265.932,90.556 265.799 C 90.556 265.482,90.088 265.536,88.889 265.990 M85.017 266.785 C 84.803 267.042,84.935 267.095,85.562 267.003 C 86.532 266.860,86.585 266.783,85.844 266.589 C 85.544 266.510,85.172 266.599,85.017 266.785 M81.111 267.452 C 81.111 267.578,81.486 267.627,81.944 267.559 C 82.403 267.492,82.778 267.389,82.778 267.330 C 82.778 267.271,82.403 267.222,81.944 267.222 C 81.486 267.222,81.111 267.326,81.111 267.452 M74.722 268.056 C 74.410 268.257,74.549 268.325,75.278 268.325 C 76.007 268.325,76.146 268.257,75.833 268.056 C 75.604 267.907,75.354 267.786,75.278 267.786 C 75.201 267.786,74.951 267.907,74.722 268.056 M71.944 268.333 C 71.621 268.542,71.702 268.604,72.308 268.607 C 72.758 268.609,73.016 268.494,72.917 268.333 C 72.704 267.988,72.478 267.988,71.944 268.333 M64.375 268.525 C 63.620 268.722,63.802 269.106,64.580 268.957 C 64.960 268.885,65.203 268.715,65.119 268.579 C 65.036 268.444,64.943 268.348,64.914 268.366 C 64.885 268.383,64.642 268.455,64.375 268.525 " stroke="none" fill="#5c59e4" fill-rule="evenodd"></path></g></svg>